<mxfile host="app.diagrams.net" agent="Mozilla/5.0 (X11; Linux x86_64) AppleWebKit/537.36 (KHTML, like Gecko) Chrome/112.0.0.0 Safari/537.36" version="26.0.8">
  <diagram name="Page-1" id="90a13364-a465-7bf4-72fc-28e22215d7a0">
    <mxGraphModel dx="2390" dy="1187" grid="1" gridSize="10" guides="1" tooltips="1" connect="1" arrows="1" fold="1" page="1" pageScale="1.5" pageWidth="1169" pageHeight="827" background="none" math="0" shadow="0">
      <root>
        <mxCell id="0" style=";html=1;" />
        <mxCell id="1" style=";html=1;" parent="0" />
        <mxCell id="JPoRV0-0kWKYk73e9sCu-6" style="edgeStyle=orthogonalEdgeStyle;rounded=0;orthogonalLoop=1;jettySize=auto;html=1;entryX=0;entryY=0.5;entryDx=0;entryDy=0;exitX=0.5;exitY=0;exitDx=0;exitDy=0;" parent="1" source="_H_bEt4n4NwgmmSnS2Ty-18" target="BtpwSkirMHUlfhhFMKDF-7" edge="1">
          <mxGeometry relative="1" as="geometry">
            <Array as="points">
              <mxPoint x="1520" y="811" />
              <mxPoint x="1520" y="150" />
            </Array>
          </mxGeometry>
        </mxCell>
        <mxCell id="vC3kN3sA0wpL92mDHwyi-43" style="edgeStyle=orthogonalEdgeStyle;rounded=0;orthogonalLoop=1;jettySize=auto;html=1;entryX=0;entryY=0.5;entryDx=0;entryDy=0;" parent="1" source="jGIxOcGe_lyUybQSf8QV-4" target="QWSBbdvPpNymhQ5q6x3e-5" edge="1">
          <mxGeometry relative="1" as="geometry">
            <Array as="points">
              <mxPoint x="860" y="230" />
              <mxPoint x="860" y="740" />
              <mxPoint x="840" y="740" />
              <mxPoint x="840" y="770" />
            </Array>
          </mxGeometry>
        </mxCell>
        <mxCell id="vC3kN3sA0wpL92mDHwyi-35" style="edgeStyle=orthogonalEdgeStyle;rounded=0;orthogonalLoop=1;jettySize=auto;html=1;entryX=0;entryY=0.5;entryDx=0;entryDy=0;jumpStyle=arc;" parent="1" source="vC3kN3sA0wpL92mDHwyi-4" target="64JDVrVSjXghW2DnclTE-1" edge="1">
          <mxGeometry relative="1" as="geometry">
            <Array as="points">
              <mxPoint x="600" y="550" />
              <mxPoint x="1120" y="550" />
            </Array>
          </mxGeometry>
        </mxCell>
        <mxCell id="zFS1pn2A8cmfrVWvFFyQ-35" style="edgeStyle=orthogonalEdgeStyle;rounded=0;orthogonalLoop=1;jettySize=auto;html=1;entryX=0;entryY=0.5;entryDx=0;entryDy=0;jumpStyle=arc;jumpSize=6;" parent="1" source="jQQxH6LwXFBK_Qau7PEY-29" target="0RyyWnerKbfPe0gcl8zv-7" edge="1">
          <mxGeometry relative="1" as="geometry">
            <Array as="points">
              <mxPoint x="310" y="280" />
              <mxPoint x="310" y="440" />
              <mxPoint x="20" y="440" />
              <mxPoint x="20" y="580" />
            </Array>
          </mxGeometry>
        </mxCell>
        <mxCell id="hefrhl2iVMpB-7Aj1aw6-40" style="edgeStyle=orthogonalEdgeStyle;rounded=0;orthogonalLoop=1;jettySize=auto;html=1;entryX=0;entryY=0.5;entryDx=0;entryDy=0;jumpStyle=arc;exitX=1;exitY=0.5;exitDx=0;exitDy=0;" parent="1" source="hefrhl2iVMpB-7Aj1aw6-35" target="hefrhl2iVMpB-7Aj1aw6-39" edge="1">
          <mxGeometry relative="1" as="geometry">
            <Array as="points">
              <mxPoint x="580" y="790" />
              <mxPoint x="580" y="430" />
              <mxPoint x="160" y="430" />
              <mxPoint x="160" y="380" />
            </Array>
          </mxGeometry>
        </mxCell>
        <mxCell id="64JDVrVSjXghW2DnclTE-34" style="edgeStyle=orthogonalEdgeStyle;rounded=0;orthogonalLoop=1;jettySize=auto;html=1;entryX=0;entryY=0.5;entryDx=0;entryDy=0;exitX=1;exitY=0.5;exitDx=0;exitDy=0;" parent="1" source="YIYq9nX8O7GQGufym3ho-10" target="QJXn4PjGb355hVGx2Jd_-12" edge="1">
          <mxGeometry relative="1" as="geometry">
            <mxPoint x="780" y="830.8333333333334" as="targetPoint" />
            <Array as="points">
              <mxPoint x="820" y="290" />
              <mxPoint x="820" y="430" />
              <mxPoint x="710" y="430" />
              <mxPoint x="710" y="860" />
              <mxPoint x="710" y="860" />
            </Array>
          </mxGeometry>
        </mxCell>
        <mxCell id="64JDVrVSjXghW2DnclTE-35" style="edgeStyle=orthogonalEdgeStyle;rounded=0;orthogonalLoop=1;jettySize=auto;html=1;entryX=0;entryY=0.5;entryDx=0;entryDy=0;exitX=1;exitY=0.5;exitDx=0;exitDy=0;" parent="1" source="LOUQa-txSwxVZWsO9tRF-1" target="QJXn4PjGb355hVGx2Jd_-2" edge="1">
          <mxGeometry relative="1" as="geometry">
            <Array as="points">
              <mxPoint x="830" y="275" />
              <mxPoint x="830" y="440" />
              <mxPoint x="750" y="440" />
            </Array>
          </mxGeometry>
        </mxCell>
        <mxCell id="64JDVrVSjXghW2DnclTE-33" style="edgeStyle=orthogonalEdgeStyle;rounded=0;orthogonalLoop=1;jettySize=auto;html=1;entryX=0;entryY=0.5;entryDx=0;entryDy=0;" parent="1" source="VjuZ78g7bgVoYlYuGaa_-8" target="64JDVrVSjXghW2DnclTE-30" edge="1">
          <mxGeometry relative="1" as="geometry">
            <Array as="points">
              <mxPoint x="360" y="920" />
              <mxPoint x="360" y="560" />
            </Array>
          </mxGeometry>
        </mxCell>
        <mxCell id="YIYq9nX8O7GQGufym3ho-17" style="edgeStyle=orthogonalEdgeStyle;rounded=0;orthogonalLoop=1;jettySize=auto;html=1;entryX=0;entryY=0.5;entryDx=0;entryDy=0;jumpStyle=arc;" parent="1" source="7fQUANpCW0_2PBthWF22-43" target="BtpwSkirMHUlfhhFMKDF-8" edge="1">
          <mxGeometry relative="1" as="geometry">
            <Array as="points">
              <mxPoint x="1250" y="130" />
            </Array>
          </mxGeometry>
        </mxCell>
        <mxCell id="q9rqpO51LhmBKndgSOn--25" style="edgeStyle=orthogonalEdgeStyle;rounded=0;orthogonalLoop=1;jettySize=auto;html=1;entryX=0;entryY=0.5;entryDx=0;entryDy=0;jumpStyle=arc;" parent="1" source="-hvyRLRQOOJ3VwnVLbOB-59" target="IpAbVSy56P0OoJBHXVlp-23" edge="1">
          <mxGeometry relative="1" as="geometry">
            <Array as="points">
              <mxPoint x="1110" y="170" />
              <mxPoint x="1110" y="470" />
            </Array>
            <mxPoint x="987.3573333333334" y="456.8421052631579" as="targetPoint" />
          </mxGeometry>
        </mxCell>
        <mxCell id="IpAbVSy56P0OoJBHXVlp-22" value="to ALU Control" style="edgeLabel;html=1;align=center;verticalAlign=middle;resizable=0;points=[];" parent="q9rqpO51LhmBKndgSOn--25" vertex="1" connectable="0">
          <mxGeometry relative="1" as="geometry">
            <mxPoint x="-250" y="-5" as="offset" />
          </mxGeometry>
        </mxCell>
        <mxCell id="t_UrKG9QsF_eRvzr-5uy-3" style="edgeStyle=orthogonalEdgeStyle;rounded=0;orthogonalLoop=1;jettySize=auto;html=1;entryX=0;entryY=0.5;entryDx=0;entryDy=0;" parent="1" source="t_UrKG9QsF_eRvzr-5uy-2" target="t_UrKG9QsF_eRvzr-5uy-1" edge="1">
          <mxGeometry relative="1" as="geometry">
            <Array as="points">
              <mxPoint x="570" y="650" />
              <mxPoint x="570" y="220" />
              <mxPoint x="160" y="220" />
              <mxPoint x="160" y="240" />
            </Array>
          </mxGeometry>
        </mxCell>
        <mxCell id="IpAbVSy56P0OoJBHXVlp-14" style="edgeStyle=orthogonalEdgeStyle;rounded=0;orthogonalLoop=1;jettySize=auto;html=1;entryX=0;entryY=0.5;entryDx=0;entryDy=0;jumpStyle=arc;" parent="1" source="IpAbVSy56P0OoJBHXVlp-3" target="IpAbVSy56P0OoJBHXVlp-9" edge="1">
          <mxGeometry relative="1" as="geometry">
            <Array as="points">
              <mxPoint x="1270" y="900" />
              <mxPoint x="1270" y="660" />
              <mxPoint x="1100" y="660" />
              <mxPoint x="1100" y="730" />
            </Array>
          </mxGeometry>
        </mxCell>
        <mxCell id="F4LApp7SRapzV72RJLrX-75" style="edgeStyle=orthogonalEdgeStyle;rounded=0;orthogonalLoop=1;jettySize=auto;html=1;entryX=0;entryY=0.5;entryDx=0;entryDy=0;jumpStyle=arc;" parent="1" source="7fQUANpCW0_2PBthWF22-40" target="F4LApp7SRapzV72RJLrX-43" edge="1">
          <mxGeometry relative="1" as="geometry">
            <Array as="points">
              <mxPoint x="1080" y="340" />
              <mxPoint x="1080" y="760" />
            </Array>
          </mxGeometry>
        </mxCell>
        <mxCell id="q9rqpO51LhmBKndgSOn--36" style="edgeStyle=orthogonalEdgeStyle;rounded=0;orthogonalLoop=1;jettySize=auto;html=1;entryX=0;entryY=0.5;entryDx=0;entryDy=0;jumpStyle=arc;" parent="1" source="7fQUANpCW0_2PBthWF22-39" target="F4LApp7SRapzV72RJLrX-42" edge="1">
          <mxGeometry relative="1" as="geometry">
            <Array as="points">
              <mxPoint x="1090" y="770" />
            </Array>
          </mxGeometry>
        </mxCell>
        <mxCell id="IpAbVSy56P0OoJBHXVlp-10" style="edgeStyle=orthogonalEdgeStyle;rounded=0;orthogonalLoop=1;jettySize=auto;html=1;entryX=0;entryY=0.5;entryDx=0;entryDy=0;jumpStyle=arc;" parent="1" source="IpAbVSy56P0OoJBHXVlp-1" target="IpAbVSy56P0OoJBHXVlp-8" edge="1">
          <mxGeometry relative="1" as="geometry">
            <Array as="points">
              <mxPoint x="1260" y="880" />
              <mxPoint x="1260" y="670" />
              <mxPoint x="1110" y="670" />
              <mxPoint x="1110" y="710" />
            </Array>
          </mxGeometry>
        </mxCell>
        <mxCell id="jQQxH6LwXFBK_Qau7PEY-23" value="&lt;div&gt;&lt;br&gt;&lt;/div&gt;PC_Controller" style="whiteSpace=wrap;html=1;shadow=1;fontSize=18;fillColor=#f5f5f5;strokeColor=#666666;" parent="1" vertex="1">
          <mxGeometry x="180" y="230" width="120" height="160" as="geometry" />
        </mxCell>
        <mxCell id="7fQUANpCW0_2PBthWF22-49" value="" style="shape=waypoint;sketch=0;size=6;pointerEvents=1;points=[];fillColor=none;resizable=0;rotatable=0;perimeter=centerPerimeter;snapToPoint=1;" parent="1" vertex="1">
          <mxGeometry x="1430" y="730" width="20" height="20" as="geometry" />
        </mxCell>
        <mxCell id="_H_bEt4n4NwgmmSnS2Ty-8" style="edgeStyle=orthogonalEdgeStyle;rounded=0;orthogonalLoop=1;jettySize=auto;html=1;entryX=0;entryY=0.5;entryDx=0;entryDy=0;exitX=1;exitY=0.5;exitDx=0;exitDy=0;" parent="1" source="_H_bEt4n4NwgmmSnS2Ty-7" target="_H_bEt4n4NwgmmSnS2Ty-3" edge="1">
          <mxGeometry relative="1" as="geometry">
            <Array as="points">
              <mxPoint x="1100" y="1160" />
              <mxPoint x="1100" y="960" />
            </Array>
          </mxGeometry>
        </mxCell>
        <mxCell id="_H_bEt4n4NwgmmSnS2Ty-23" style="edgeStyle=orthogonalEdgeStyle;rounded=0;orthogonalLoop=1;jettySize=auto;html=1;entryX=1;entryY=0.5;entryDx=0;entryDy=0;jumpStyle=arc;exitX=1;exitY=0.5;exitDx=0;exitDy=0;" parent="1" source="_H_bEt4n4NwgmmSnS2Ty-6" target="_H_bEt4n4NwgmmSnS2Ty-18" edge="1">
          <mxGeometry relative="1" as="geometry">
            <mxPoint x="827.0799999999999" y="1124" as="sourcePoint" />
            <mxPoint x="1520.0800000000002" y="125" as="targetPoint" />
            <Array as="points">
              <mxPoint x="1380" y="1140" />
            </Array>
          </mxGeometry>
        </mxCell>
        <mxCell id="09E98BjTh2XKiK8LabDe-4" style="edgeStyle=orthogonalEdgeStyle;rounded=0;orthogonalLoop=1;jettySize=auto;html=1;entryX=1;entryY=0.5;entryDx=0;entryDy=0;fontSize=12;startSize=8;endSize=8;jumpStyle=arc;" parent="1" source="09E98BjTh2XKiK8LabDe-3" target="_H_bEt4n4NwgmmSnS2Ty-25" edge="1">
          <mxGeometry relative="1" as="geometry">
            <Array as="points">
              <mxPoint x="1340" y="1120" />
            </Array>
          </mxGeometry>
        </mxCell>
        <mxCell id="_H_bEt4n4NwgmmSnS2Ty-14" style="edgeStyle=orthogonalEdgeStyle;rounded=0;orthogonalLoop=1;jettySize=auto;html=1;entryX=1;entryY=0.5;entryDx=0;entryDy=0;jumpStyle=arc;exitX=1;exitY=0.5;exitDx=0;exitDy=0;" parent="1" source="_H_bEt4n4NwgmmSnS2Ty-13" target="_H_bEt4n4NwgmmSnS2Ty-5" edge="1">
          <mxGeometry relative="1" as="geometry">
            <Array as="points">
              <mxPoint x="1260" y="1000" />
              <mxPoint x="1260" y="1100" />
            </Array>
          </mxGeometry>
        </mxCell>
        <mxCell id="o8jE4zu5w3KYZrWDI-N--35" style="edgeStyle=orthogonalEdgeStyle;rounded=0;orthogonalLoop=1;jettySize=auto;html=1;entryX=1;entryY=0.5;entryDx=0;entryDy=0;exitX=0;exitY=0.5;exitDx=0;exitDy=0;" parent="1" source="o8jE4zu5w3KYZrWDI-N--34" target="o8jE4zu5w3KYZrWDI-N--13" edge="1">
          <mxGeometry relative="1" as="geometry">
            <mxPoint x="310.08000000000004" y="590" as="targetPoint" />
            <Array as="points">
              <mxPoint x="310" y="1140" />
              <mxPoint x="310" y="590" />
              <mxPoint x="330" y="590" />
              <mxPoint x="330" y="560" />
            </Array>
          </mxGeometry>
        </mxCell>
        <mxCell id="o8jE4zu5w3KYZrWDI-N--18" style="edgeStyle=orthogonalEdgeStyle;rounded=0;orthogonalLoop=1;jettySize=auto;html=1;entryX=0;entryY=0.5;entryDx=0;entryDy=0;exitX=1;exitY=0.5;exitDx=0;exitDy=0;" parent="1" source="wyz3YsZ-V2g4d5ax0XK7-10" target="o8jE4zu5w3KYZrWDI-N--15" edge="1">
          <mxGeometry relative="1" as="geometry">
            <Array as="points">
              <mxPoint x="300" y="730" />
              <mxPoint x="300" y="550" />
            </Array>
          </mxGeometry>
        </mxCell>
        <mxCell id="o8jE4zu5w3KYZrWDI-N--29" style="edgeStyle=orthogonalEdgeStyle;rounded=0;orthogonalLoop=1;jettySize=auto;html=1;entryX=0;entryY=0.5;entryDx=0;entryDy=0;jumpStyle=arc;exitX=1;exitY=0.5;exitDx=0;exitDy=0;" parent="1" source="o8jE4zu5w3KYZrWDI-N--27" target="o8jE4zu5w3KYZrWDI-N--28" edge="1">
          <mxGeometry relative="1" as="geometry">
            <Array as="points">
              <mxPoint x="330" y="630" />
              <mxPoint x="330" y="1080" />
            </Array>
          </mxGeometry>
        </mxCell>
        <mxCell id="o8jE4zu5w3KYZrWDI-N--26" style="edgeStyle=orthogonalEdgeStyle;rounded=0;orthogonalLoop=1;jettySize=auto;html=1;entryX=0;entryY=0.5;entryDx=0;entryDy=0;jumpStyle=arc;" parent="1" source="o8jE4zu5w3KYZrWDI-N--25" target="wyz3YsZ-V2g4d5ax0XK7-13" edge="1">
          <mxGeometry relative="1" as="geometry">
            <Array as="points">
              <mxPoint x="170" y="860" />
              <mxPoint x="320" y="860" />
              <mxPoint x="320" y="1100" />
            </Array>
          </mxGeometry>
        </mxCell>
        <mxCell id="zFS1pn2A8cmfrVWvFFyQ-30" style="edgeStyle=orthogonalEdgeStyle;rounded=0;orthogonalLoop=1;jettySize=auto;html=1;entryX=0;entryY=0.5;entryDx=0;entryDy=0;" parent="1" source="7fQUANpCW0_2PBthWF22-51" target="s6hKSkpy---ewfnxM8lV-30" edge="1">
          <mxGeometry relative="1" as="geometry">
            <Array as="points">
              <mxPoint x="140" y="910" />
            </Array>
            <mxPoint x="140.07999999999998" y="920" as="sourcePoint" />
          </mxGeometry>
        </mxCell>
        <mxCell id="MuofbJJSr7D3HssxxxzW-17" style="edgeStyle=orthogonalEdgeStyle;rounded=0;orthogonalLoop=1;jettySize=auto;html=1;entryX=0;entryY=0.5;entryDx=0;entryDy=0;" parent="1" source="7fQUANpCW0_2PBthWF22-30" target="jQQxH6LwXFBK_Qau7PEY-24" edge="1">
          <mxGeometry relative="1" as="geometry">
            <Array as="points">
              <mxPoint x="130" y="300" />
            </Array>
          </mxGeometry>
        </mxCell>
        <mxCell id="laC3dYbV331lfGwgBf-x-32" style="edgeStyle=orthogonalEdgeStyle;rounded=0;orthogonalLoop=1;jettySize=auto;html=1;entryX=0;entryY=0.5;entryDx=0;entryDy=0;jumpStyle=arc;exitX=1;exitY=0.5;exitDx=0;exitDy=0;" parent="1" source="laC3dYbV331lfGwgBf-x-29" target="laC3dYbV331lfGwgBf-x-28" edge="1">
          <mxGeometry relative="1" as="geometry">
            <Array as="points">
              <mxPoint x="1480" y="610" />
              <mxPoint x="1480" y="320" />
              <mxPoint x="1370" y="320" />
              <mxPoint x="1370" y="290" />
            </Array>
          </mxGeometry>
        </mxCell>
        <mxCell id="zFS1pn2A8cmfrVWvFFyQ-11" style="edgeStyle=orthogonalEdgeStyle;rounded=0;orthogonalLoop=1;jettySize=auto;html=1;entryX=0;entryY=0.5;entryDx=0;entryDy=0;exitX=1;exitY=0.5;exitDx=0;exitDy=0;jumpStyle=arc;" parent="1" source="-hvyRLRQOOJ3VwnVLbOB-6" target="-hvyRLRQOOJ3VwnVLbOB-49" edge="1">
          <mxGeometry relative="1" as="geometry">
            <mxPoint x="620.02" y="190" as="targetPoint" />
            <Array as="points">
              <mxPoint x="610" y="470" />
              <mxPoint x="610" y="170" />
            </Array>
            <mxPoint x="510.02" y="480" as="sourcePoint" />
          </mxGeometry>
        </mxCell>
        <mxCell id="IpAbVSy56P0OoJBHXVlp-26" style="edgeStyle=orthogonalEdgeStyle;rounded=0;orthogonalLoop=1;jettySize=auto;html=1;entryX=1;entryY=0.5;entryDx=0;entryDy=0;jumpStyle=arc;exitX=0;exitY=0.25;exitDx=0;exitDy=0;" parent="1" source="hefrhl2iVMpB-7Aj1aw6-18" target="IpAbVSy56P0OoJBHXVlp-25" edge="1">
          <mxGeometry relative="1" as="geometry">
            <Array as="points">
              <mxPoint x="400" y="790" />
              <mxPoint x="400" y="650" />
            </Array>
          </mxGeometry>
        </mxCell>
        <mxCell id="zFS1pn2A8cmfrVWvFFyQ-78" style="edgeStyle=orthogonalEdgeStyle;rounded=0;orthogonalLoop=1;jettySize=auto;html=1;entryX=0.5;entryY=0;entryDx=0;entryDy=0;jumpStyle=arc;" parent="1" source="F4LApp7SRapzV72RJLrX-1" target="F4LApp7SRapzV72RJLrX-6" edge="1">
          <mxGeometry relative="1" as="geometry" />
        </mxCell>
        <mxCell id="-nASIVS76yrskM6xYjcV-2" value="&lt;h1 style=&quot;margin-top: 0px;&quot;&gt;KHWL_RV32I47F.R1&lt;/h1&gt;&lt;p&gt;&lt;span style=&quot;background-color: transparent;&quot;&gt;Implemented EBREAK. Signals Optimized &amp;amp; Still working.&amp;nbsp;&lt;/span&gt;&lt;br&gt;Signal &amp;amp; Modules Validity verifying.&amp;nbsp;&lt;br&gt;Dbg.Interface&#39;s implementation is partial. &lt;br&gt;(Only Debug Mode switching and Instr.Insert available)&lt;br&gt;&lt;span style=&quot;background-color: transparent;&quot;&gt;Debug Mode with Pri-ISA is not supported yet.&lt;/span&gt;&lt;/p&gt;&lt;p&gt;&lt;/p&gt;&lt;p&gt;&lt;/p&gt;" style="text;html=1;whiteSpace=wrap;overflow=hidden;rounded=0;" parent="1" vertex="1">
          <mxGeometry x="1430" y="1110" width="320" height="120" as="geometry" />
        </mxCell>
        <mxCell id="-nASIVS76yrskM6xYjcV-3" value="&lt;div style=&quot;&quot;&gt;&lt;span style=&quot;font-size: 14px; background-color: transparent;&quot;&gt;17:24&lt;/span&gt;&lt;b style=&quot;font-size: 14px; background-color: transparent;&quot;&gt;&amp;nbsp; &amp;nbsp;강현우&lt;/b&gt;&lt;span style=&quot;font-size: 14px; background-color: transparent;&quot;&gt;, KHWL2025.&lt;/span&gt;&lt;/div&gt;&lt;span style=&quot;&quot;&gt;&lt;div style=&quot;&quot;&gt;&lt;span style=&quot;background-color: transparent;&quot;&gt;2024.12.15(日) ~ 2025.01.27(月)&lt;/span&gt;&lt;/div&gt;&lt;/span&gt;" style="text;html=1;align=right;verticalAlign=middle;whiteSpace=wrap;rounded=0;" parent="1" vertex="1">
          <mxGeometry x="1250" y="1200" width="180" height="40" as="geometry" />
        </mxCell>
        <mxCell id="wTCf3CvT70fc92s2WAtQ-12" value="" style="group" parent="1" vertex="1" connectable="0">
          <mxGeometry x="340" y="360" width="200" height="40" as="geometry" />
        </mxCell>
        <mxCell id="wTCf3CvT70fc92s2WAtQ-9" value="&lt;div&gt;J_Aligner&lt;/div&gt;" style="whiteSpace=wrap;html=1;shadow=1;fontSize=18;fillColor=#f5f5f5;strokeColor=#666666;" parent="wTCf3CvT70fc92s2WAtQ-12" vertex="1">
          <mxGeometry width="200" height="40" as="geometry" />
        </mxCell>
        <mxCell id="wTCf3CvT70fc92s2WAtQ-10" value="J_Target" style="text;html=1;align=left;verticalAlign=middle;whiteSpace=wrap;rounded=0;" parent="wTCf3CvT70fc92s2WAtQ-12" vertex="1">
          <mxGeometry y="10" width="50" height="20" as="geometry" />
        </mxCell>
        <mxCell id="wTCf3CvT70fc92s2WAtQ-11" value="ALUresult" style="text;html=1;align=right;verticalAlign=middle;whiteSpace=wrap;rounded=0;" parent="wTCf3CvT70fc92s2WAtQ-12" vertex="1">
          <mxGeometry x="140" y="10" width="60" height="20" as="geometry" />
        </mxCell>
        <mxCell id="wTCf3CvT70fc92s2WAtQ-32" style="edgeStyle=orthogonalEdgeStyle;rounded=0;orthogonalLoop=1;jettySize=auto;html=1;entryX=0;entryY=0.5;entryDx=0;entryDy=0;jumpStyle=arc;" parent="1" source="-hvyRLRQOOJ3VwnVLbOB-10" target="laC3dYbV331lfGwgBf-x-16" edge="1">
          <mxGeometry relative="1" as="geometry">
            <Array as="points">
              <mxPoint x="600" y="610" />
              <mxPoint x="600" y="610" />
            </Array>
          </mxGeometry>
        </mxCell>
        <mxCell id="BtpwSkirMHUlfhhFMKDF-15" style="edgeStyle=orthogonalEdgeStyle;rounded=0;orthogonalLoop=1;jettySize=auto;html=1;entryX=0;entryY=0.5;entryDx=0;entryDy=0;jumpStyle=arc;jumpSize=7;" parent="1" source="7fQUANpCW0_2PBthWF22-46" target="BtpwSkirMHUlfhhFMKDF-9" edge="1">
          <mxGeometry relative="1" as="geometry">
            <Array as="points">
              <mxPoint x="1550" y="700" />
              <mxPoint x="1550" y="200" />
            </Array>
            <mxPoint x="1500.0800000000002" y="730" as="sourcePoint" />
          </mxGeometry>
        </mxCell>
        <mxCell id="JPoRV0-0kWKYk73e9sCu-15" value="to BE" style="edgeLabel;html=1;align=center;verticalAlign=middle;resizable=0;points=[];" parent="BtpwSkirMHUlfhhFMKDF-15" vertex="1" connectable="0">
          <mxGeometry relative="1" as="geometry">
            <mxPoint y="190" as="offset" />
          </mxGeometry>
        </mxCell>
        <mxCell id="BtpwSkirMHUlfhhFMKDF-23" style="edgeStyle=orthogonalEdgeStyle;rounded=0;orthogonalLoop=1;jettySize=auto;html=1;entryX=0;entryY=0.5;entryDx=0;entryDy=0;exitX=1;exitY=0.5;exitDx=0;exitDy=0;jumpStyle=arc;" parent="1" source="BtpwSkirMHUlfhhFMKDF-10" target="fCNnA6YKo8tVsQt9WhIM-6" edge="1">
          <mxGeometry relative="1" as="geometry">
            <Array as="points">
              <mxPoint x="1700" y="90" />
              <mxPoint x="1700" y="1090" />
              <mxPoint x="1110" y="1090" />
              <mxPoint x="1110" y="1000" />
            </Array>
          </mxGeometry>
        </mxCell>
        <mxCell id="BtpwSkirMHUlfhhFMKDF-26" style="edgeStyle=orthogonalEdgeStyle;rounded=0;orthogonalLoop=1;jettySize=auto;html=1;entryX=0;entryY=0.5;entryDx=0;entryDy=0;exitX=1;exitY=0.5;exitDx=0;exitDy=0;jumpStyle=arc;" parent="1" source="BtpwSkirMHUlfhhFMKDF-11" target="BtpwSkirMHUlfhhFMKDF-25" edge="1">
          <mxGeometry relative="1" as="geometry">
            <Array as="points">
              <mxPoint x="1690" y="180" />
              <mxPoint x="1690" y="1080" />
              <mxPoint x="1020" y="1080" />
              <mxPoint x="1020" y="810" />
            </Array>
          </mxGeometry>
        </mxCell>
        <mxCell id="QWSBbdvPpNymhQ5q6x3e-8" style="edgeStyle=orthogonalEdgeStyle;rounded=0;orthogonalLoop=1;jettySize=auto;html=1;entryX=0;entryY=0.5;entryDx=0;entryDy=0;exitX=1;exitY=0.5;exitDx=0;exitDy=0;jumpStyle=arc;" parent="1" source="QWSBbdvPpNymhQ5q6x3e-9" target="vC3kN3sA0wpL92mDHwyi-42" edge="1">
          <mxGeometry relative="1" as="geometry">
            <mxPoint x="800.02" y="360.0103092783505" as="sourcePoint" />
            <Array as="points">
              <mxPoint x="840" y="260" />
              <mxPoint x="840" y="720" />
              <mxPoint x="820" y="720" />
              <mxPoint x="820" y="810" />
            </Array>
            <mxPoint x="860" y="789.9999999999999" as="targetPoint" />
          </mxGeometry>
        </mxCell>
        <mxCell id="7fQUANpCW0_2PBthWF22-30" value="" style="shape=waypoint;sketch=0;size=6;pointerEvents=1;points=[];fillColor=none;resizable=0;rotatable=0;perimeter=centerPerimeter;snapToPoint=1;" parent="1" vertex="1">
          <mxGeometry x="120" y="570" width="20" height="20" as="geometry" />
        </mxCell>
        <mxCell id="7fQUANpCW0_2PBthWF22-33" value="" style="shape=waypoint;sketch=0;size=6;pointerEvents=1;points=[];fillColor=none;resizable=0;rotatable=0;perimeter=centerPerimeter;snapToPoint=1;" parent="1" vertex="1">
          <mxGeometry x="610" y="480" width="20" height="20" as="geometry" />
        </mxCell>
        <mxCell id="vC3kN3sA0wpL92mDHwyi-1" style="edgeStyle=orthogonalEdgeStyle;rounded=0;orthogonalLoop=1;jettySize=auto;html=1;entryX=0;entryY=0.5;entryDx=0;entryDy=0;jumpStyle=arc;" parent="1" source="7fQUANpCW0_2PBthWF22-34" target="-hvyRLRQOOJ3VwnVLbOB-64" edge="1">
          <mxGeometry relative="1" as="geometry" />
        </mxCell>
        <mxCell id="7fQUANpCW0_2PBthWF22-34" value="" style="shape=waypoint;sketch=0;size=6;pointerEvents=1;points=[];fillColor=none;resizable=0;rotatable=0;perimeter=centerPerimeter;snapToPoint=1;" parent="1" vertex="1">
          <mxGeometry x="1050" y="480" width="20" height="20" as="geometry" />
        </mxCell>
        <mxCell id="7fQUANpCW0_2PBthWF22-39" value="" style="shape=waypoint;sketch=0;size=6;pointerEvents=1;points=[];fillColor=none;resizable=0;rotatable=0;perimeter=centerPerimeter;snapToPoint=1;" parent="1" vertex="1">
          <mxGeometry x="1080" y="340" width="20" height="20" as="geometry" />
        </mxCell>
        <mxCell id="7fQUANpCW0_2PBthWF22-40" value="" style="shape=waypoint;sketch=0;size=6;pointerEvents=1;points=[];fillColor=none;resizable=0;rotatable=0;perimeter=centerPerimeter;snapToPoint=1;" parent="1" vertex="1">
          <mxGeometry x="1070" y="320" width="20" height="20" as="geometry" />
        </mxCell>
        <mxCell id="7fQUANpCW0_2PBthWF22-45" value="" style="shape=waypoint;sketch=0;size=6;pointerEvents=1;points=[];fillColor=none;resizable=0;rotatable=0;perimeter=centerPerimeter;snapToPoint=1;" parent="1" vertex="1">
          <mxGeometry x="1000" y="760" width="20" height="20" as="geometry" />
        </mxCell>
        <mxCell id="7fQUANpCW0_2PBthWF22-46" value="" style="shape=waypoint;sketch=0;size=6;pointerEvents=1;points=[];fillColor=none;resizable=0;rotatable=0;perimeter=centerPerimeter;snapToPoint=1;" parent="1" vertex="1">
          <mxGeometry x="1480" y="690" width="20" height="20" as="geometry" />
        </mxCell>
        <mxCell id="YIYq9nX8O7GQGufym3ho-22" style="edgeStyle=orthogonalEdgeStyle;rounded=0;orthogonalLoop=1;jettySize=auto;html=1;entryX=0;entryY=0.5;entryDx=0;entryDy=0;" parent="1" source="R418lhbPfAe_eccTZUrx-7" target="7fQUANpCW0_2PBthWF22-21" edge="1">
          <mxGeometry relative="1" as="geometry">
            <Array as="points">
              <mxPoint x="1320" y="700" />
              <mxPoint x="1340" y="700" />
            </Array>
          </mxGeometry>
        </mxCell>
        <mxCell id="R418lhbPfAe_eccTZUrx-7" value="" style="shape=waypoint;sketch=0;size=6;pointerEvents=1;points=[];fillColor=none;resizable=0;rotatable=0;perimeter=centerPerimeter;snapToPoint=1;" parent="1" vertex="1">
          <mxGeometry x="1310" y="850" width="20" height="20" as="geometry" />
        </mxCell>
        <mxCell id="vC3kN3sA0wpL92mDHwyi-2" style="edgeStyle=orthogonalEdgeStyle;rounded=0;orthogonalLoop=1;jettySize=auto;html=1;entryX=0;entryY=0.5;entryDx=0;entryDy=0;jumpStyle=arc;" parent="1" source="R418lhbPfAe_eccTZUrx-9" target="BtpwSkirMHUlfhhFMKDF-6" edge="1">
          <mxGeometry relative="1" as="geometry">
            <Array as="points">
              <mxPoint x="1540" y="390" />
              <mxPoint x="1540" y="180" />
            </Array>
          </mxGeometry>
        </mxCell>
        <mxCell id="R418lhbPfAe_eccTZUrx-9" value="" style="shape=waypoint;sketch=0;size=6;pointerEvents=1;points=[];fillColor=none;resizable=0;rotatable=0;perimeter=centerPerimeter;snapToPoint=1;" parent="1" vertex="1">
          <mxGeometry x="1350" y="380" width="20" height="20" as="geometry" />
        </mxCell>
        <mxCell id="zFS1pn2A8cmfrVWvFFyQ-28" style="edgeStyle=orthogonalEdgeStyle;rounded=0;orthogonalLoop=1;jettySize=auto;html=1;entryX=0;entryY=0.5;entryDx=0;entryDy=0;jumpStyle=arc;" parent="1" source="0RyyWnerKbfPe0gcl8zv-8" target="7fQUANpCW0_2PBthWF22-14" edge="1">
          <mxGeometry relative="1" as="geometry">
            <Array as="points">
              <mxPoint x="130" y="580" />
              <mxPoint x="130" y="1050" />
              <mxPoint x="930" y="1050" />
              <mxPoint x="930" y="1070" />
              <mxPoint x="1280" y="1070" />
              <mxPoint x="1280" y="600" />
            </Array>
            <mxPoint x="1200.0800000000002" y="620" as="targetPoint" />
          </mxGeometry>
        </mxCell>
        <mxCell id="7fQUANpCW0_2PBthWF22-37" value="" style="shape=waypoint;sketch=0;size=6;pointerEvents=1;points=[];fillColor=none;resizable=0;rotatable=0;perimeter=centerPerimeter;snapToPoint=1;" parent="1" vertex="1">
          <mxGeometry x="580" y="410" width="20" height="20" as="geometry" />
        </mxCell>
        <mxCell id="jGIxOcGe_lyUybQSf8QV-2" style="edgeStyle=orthogonalEdgeStyle;rounded=0;orthogonalLoop=1;jettySize=auto;html=1;entryX=0;entryY=0.5;entryDx=0;entryDy=0;" parent="1" source="7fQUANpCW0_2PBthWF22-33" target="jGIxOcGe_lyUybQSf8QV-1" edge="1">
          <mxGeometry relative="1" as="geometry">
            <Array as="points">
              <mxPoint x="620" y="200" />
              <mxPoint x="640" y="200" />
            </Array>
          </mxGeometry>
        </mxCell>
        <mxCell id="zFS1pn2A8cmfrVWvFFyQ-10" style="edgeStyle=orthogonalEdgeStyle;rounded=0;orthogonalLoop=1;jettySize=auto;html=1;entryX=0;entryY=0.5;entryDx=0;entryDy=0;jumpStyle=arc;jumpSize=6;exitX=1;exitY=0.5;exitDx=0;exitDy=0;" parent="1" source="-hvyRLRQOOJ3VwnVLbOB-12" target="-hvyRLRQOOJ3VwnVLbOB-65" edge="1">
          <mxGeometry relative="1" as="geometry">
            <Array as="points">
              <mxPoint x="900" y="510" />
              <mxPoint x="900" y="510" />
            </Array>
          </mxGeometry>
        </mxCell>
        <mxCell id="R418lhbPfAe_eccTZUrx-2" style="edgeStyle=orthogonalEdgeStyle;rounded=0;orthogonalLoop=1;jettySize=auto;html=1;entryX=1;entryY=0.5;entryDx=0;entryDy=0;jumpStyle=arc;" parent="1" source="7fQUANpCW0_2PBthWF22-37" target="wTCf3CvT70fc92s2WAtQ-11" edge="1">
          <mxGeometry relative="1" as="geometry">
            <Array as="points">
              <mxPoint x="590" y="380" />
            </Array>
          </mxGeometry>
        </mxCell>
        <mxCell id="wyz3YsZ-V2g4d5ax0XK7-6" value="" style="group" parent="1" vertex="1" connectable="0">
          <mxGeometry x="180" y="500" width="100" height="160" as="geometry" />
        </mxCell>
        <mxCell id="0RyyWnerKbfPe0gcl8zv-1" value="I. Cache&lt;div&gt;&lt;br&gt;&lt;/div&gt;&lt;div&gt;&lt;br&gt;&lt;/div&gt;" style="whiteSpace=wrap;html=1;shadow=1;fontSize=18;fillColor=#f5f5f5;strokeColor=#666666;" parent="wyz3YsZ-V2g4d5ax0XK7-6" vertex="1">
          <mxGeometry width="100" height="160" as="geometry" />
        </mxCell>
        <mxCell id="0RyyWnerKbfPe0gcl8zv-3" value="PC" style="text;html=1;align=left;verticalAlign=middle;whiteSpace=wrap;rounded=0;" parent="wyz3YsZ-V2g4d5ax0XK7-6" vertex="1">
          <mxGeometry y="70" width="20" height="20" as="geometry" />
        </mxCell>
        <mxCell id="0RyyWnerKbfPe0gcl8zv-4" value="IC_RD" style="text;html=1;align=center;verticalAlign=middle;whiteSpace=wrap;rounded=0;" parent="wyz3YsZ-V2g4d5ax0XK7-6" vertex="1">
          <mxGeometry x="60" y="20" width="40" height="20" as="geometry" />
        </mxCell>
        <mxCell id="wyz3YsZ-V2g4d5ax0XK7-15" value="I.U_Addr" style="text;html=1;align=left;verticalAlign=middle;whiteSpace=wrap;rounded=0;" parent="wyz3YsZ-V2g4d5ax0XK7-6" vertex="1">
          <mxGeometry y="20" width="60" height="20" as="geometry" />
        </mxCell>
        <mxCell id="wyz3YsZ-V2g4d5ax0XK7-17" value="I.U_Data" style="text;html=1;align=left;verticalAlign=middle;whiteSpace=wrap;rounded=0;" parent="wyz3YsZ-V2g4d5ax0XK7-6" vertex="1">
          <mxGeometry width="60" height="20" as="geometry" />
        </mxCell>
        <mxCell id="o8jE4zu5w3KYZrWDI-N--21" value="PC" style="text;html=1;align=left;verticalAlign=middle;whiteSpace=wrap;rounded=0;" parent="wyz3YsZ-V2g4d5ax0XK7-6" vertex="1">
          <mxGeometry y="120" width="20" height="20" as="geometry" />
        </mxCell>
        <mxCell id="o8jE4zu5w3KYZrWDI-N--27" value="IC_Status" style="text;html=1;align=right;verticalAlign=middle;whiteSpace=wrap;rounded=0;" parent="wyz3YsZ-V2g4d5ax0XK7-6" vertex="1">
          <mxGeometry x="30" y="120" width="70" height="20" as="geometry" />
        </mxCell>
        <mxCell id="IpAbVSy56P0OoJBHXVlp-25" value="IC_Clean" style="text;html=1;align=right;verticalAlign=middle;whiteSpace=wrap;rounded=0;container=0;" parent="wyz3YsZ-V2g4d5ax0XK7-6" vertex="1">
          <mxGeometry x="30" y="140" width="70" height="20" as="geometry" />
        </mxCell>
        <mxCell id="7fQUANpCW0_2PBthWF22-51" value="" style="shape=waypoint;sketch=0;size=6;pointerEvents=1;points=[];fillColor=none;resizable=0;rotatable=0;perimeter=centerPerimeter;snapToPoint=1;" parent="1" vertex="1">
          <mxGeometry x="120" y="900" width="20" height="20" as="geometry" />
        </mxCell>
        <mxCell id="o8jE4zu5w3KYZrWDI-N--3" value="" style="edgeStyle=orthogonalEdgeStyle;rounded=0;orthogonalLoop=1;jettySize=auto;html=1;entryX=0;entryY=0.5;entryDx=0;entryDy=0;" parent="1" source="7fQUANpCW0_2PBthWF22-30" target="0RyyWnerKbfPe0gcl8zv-3" edge="1">
          <mxGeometry relative="1" as="geometry">
            <mxPoint x="140" y="600" as="sourcePoint" />
          </mxGeometry>
        </mxCell>
        <mxCell id="o8jE4zu5w3KYZrWDI-N--6" style="edgeStyle=orthogonalEdgeStyle;rounded=0;orthogonalLoop=1;jettySize=auto;html=1;entryX=0;entryY=0.5;entryDx=0;entryDy=0;jumpStyle=arc;exitX=0;exitY=0.5;exitDx=0;exitDy=0;" parent="1" source="o8jE4zu5w3KYZrWDI-N--5" target="wyz3YsZ-V2g4d5ax0XK7-15" edge="1">
          <mxGeometry relative="1" as="geometry">
            <Array as="points">
              <mxPoint x="160" y="1160" />
              <mxPoint x="160" y="530" />
            </Array>
          </mxGeometry>
        </mxCell>
        <mxCell id="o8jE4zu5w3KYZrWDI-N--8" value="" style="group" parent="1" vertex="1" connectable="0">
          <mxGeometry x="180" y="890" width="80" height="80" as="geometry" />
        </mxCell>
        <mxCell id="s6hKSkpy---ewfnxM8lV-29" value="PCplus4" style="whiteSpace=wrap;html=1;shadow=1;fontSize=18;fillColor=#f5f5f5;strokeColor=#666666;" parent="o8jE4zu5w3KYZrWDI-N--8" vertex="1">
          <mxGeometry width="80" height="80" as="geometry" />
        </mxCell>
        <mxCell id="s6hKSkpy---ewfnxM8lV-30" value="PC" style="text;html=1;align=left;verticalAlign=middle;whiteSpace=wrap;rounded=0;" parent="o8jE4zu5w3KYZrWDI-N--8" vertex="1">
          <mxGeometry y="10" width="20" height="20" as="geometry" />
        </mxCell>
        <mxCell id="s6hKSkpy---ewfnxM8lV-31" value="PC+4" style="text;html=1;align=right;verticalAlign=middle;whiteSpace=wrap;rounded=0;" parent="o8jE4zu5w3KYZrWDI-N--8" vertex="1">
          <mxGeometry x="30" y="60" width="50" height="20" as="geometry" />
        </mxCell>
        <mxCell id="s6hKSkpy---ewfnxM8lV-32" value="4" style="text;html=1;align=left;verticalAlign=middle;whiteSpace=wrap;rounded=0;" parent="o8jE4zu5w3KYZrWDI-N--8" vertex="1">
          <mxGeometry y="60" width="10" height="20" as="geometry" />
        </mxCell>
        <mxCell id="o8jE4zu5w3KYZrWDI-N--10" value="" style="endArrow=classic;html=1;rounded=0;entryX=0;entryY=0.5;entryDx=0;entryDy=0;" parent="1" target="s6hKSkpy---ewfnxM8lV-32" edge="1">
          <mxGeometry width="50" height="50" relative="1" as="geometry">
            <mxPoint x="170.07999999999998" y="960" as="sourcePoint" />
            <mxPoint x="220.07999999999998" y="900" as="targetPoint" />
          </mxGeometry>
        </mxCell>
        <mxCell id="o8jE4zu5w3KYZrWDI-N--19" value="" style="shape=waypoint;sketch=0;size=6;pointerEvents=1;points=[];fillColor=none;resizable=0;rotatable=0;perimeter=centerPerimeter;snapToPoint=1;" parent="1" vertex="1">
          <mxGeometry x="290" y="540" width="20" height="20" as="geometry" />
        </mxCell>
        <mxCell id="o8jE4zu5w3KYZrWDI-N--24" style="edgeStyle=orthogonalEdgeStyle;rounded=0;orthogonalLoop=1;jettySize=auto;html=1;entryX=0;entryY=0.5;entryDx=0;entryDy=0;" parent="1" source="o8jE4zu5w3KYZrWDI-N--21" target="wyz3YsZ-V2g4d5ax0XK7-9" edge="1">
          <mxGeometry relative="1" as="geometry">
            <mxPoint x="180.07999999999998" y="730" as="targetPoint" />
            <Array as="points">
              <mxPoint x="170" y="630" />
              <mxPoint x="170" y="730" />
            </Array>
          </mxGeometry>
        </mxCell>
        <mxCell id="o8jE4zu5w3KYZrWDI-N--20" style="edgeStyle=orthogonalEdgeStyle;rounded=0;orthogonalLoop=1;jettySize=auto;html=1;entryX=0;entryY=0.5;entryDx=0;entryDy=0;jumpStyle=arc;" parent="1" source="o8jE4zu5w3KYZrWDI-N--19" target="wyz3YsZ-V2g4d5ax0XK7-17" edge="1">
          <mxGeometry relative="1" as="geometry">
            <Array as="points">
              <mxPoint x="300" y="480" />
              <mxPoint x="160" y="480" />
              <mxPoint x="160" y="510" />
            </Array>
          </mxGeometry>
        </mxCell>
        <mxCell id="o8jE4zu5w3KYZrWDI-N--25" value="" style="shape=waypoint;sketch=0;size=6;pointerEvents=1;points=[];fillColor=none;resizable=0;rotatable=0;perimeter=centerPerimeter;snapToPoint=1;" parent="1" vertex="1">
          <mxGeometry x="160" y="720" width="20" height="20" as="geometry" />
        </mxCell>
        <mxCell id="_H_bEt4n4NwgmmSnS2Ty-1" value="" style="shape=waypoint;sketch=0;size=6;pointerEvents=1;points=[];fillColor=none;resizable=0;rotatable=0;perimeter=centerPerimeter;snapToPoint=1;" parent="1" vertex="1">
          <mxGeometry x="1020" y="890" width="20" height="20" as="geometry" />
        </mxCell>
        <mxCell id="_H_bEt4n4NwgmmSnS2Ty-9" value="" style="shape=waypoint;sketch=0;size=6;pointerEvents=1;points=[];fillColor=none;resizable=0;rotatable=0;perimeter=centerPerimeter;snapToPoint=1;" parent="1" vertex="1">
          <mxGeometry x="1330" y="800" width="20" height="20" as="geometry" />
        </mxCell>
        <mxCell id="zFS1pn2A8cmfrVWvFFyQ-41" style="edgeStyle=orthogonalEdgeStyle;rounded=0;orthogonalLoop=1;jettySize=auto;html=1;entryX=0;entryY=0.5;entryDx=0;entryDy=0;jumpStyle=arc;" parent="1" source="7fQUANpCW0_2PBthWF22-49" target="F4LApp7SRapzV72RJLrX-40" edge="1">
          <mxGeometry relative="1" as="geometry">
            <Array as="points">
              <mxPoint x="1420" y="740" />
              <mxPoint x="1420" y="1020" />
              <mxPoint x="1030" y="1020" />
              <mxPoint x="1030" y="830" />
            </Array>
            <mxPoint x="1410.0800000000002" y="730" as="sourcePoint" />
          </mxGeometry>
        </mxCell>
        <mxCell id="zFS1pn2A8cmfrVWvFFyQ-75" value="to DM" style="edgeLabel;html=1;align=center;verticalAlign=middle;resizable=0;points=[];" parent="zFS1pn2A8cmfrVWvFFyQ-41" vertex="1" connectable="0">
          <mxGeometry relative="1" as="geometry">
            <mxPoint x="190" y="-240" as="offset" />
          </mxGeometry>
        </mxCell>
        <mxCell id="09E98BjTh2XKiK8LabDe-3" value="" style="shape=waypoint;sketch=0;size=6;pointerEvents=1;points=[];fillColor=none;resizable=0;rotatable=0;perimeter=centerPerimeter;snapToPoint=1;" parent="1" vertex="1">
          <mxGeometry x="1330" y="1010" width="20" height="20" as="geometry" />
        </mxCell>
        <mxCell id="zFS1pn2A8cmfrVWvFFyQ-36" style="edgeStyle=orthogonalEdgeStyle;rounded=0;orthogonalLoop=1;jettySize=auto;html=1;exitX=1;exitY=0.5;exitDx=0;exitDy=0;entryX=0;entryY=0.5;entryDx=0;entryDy=0;jumpStyle=arc;jumpSize=6;" parent="1" source="laC3dYbV331lfGwgBf-x-17" target="7fQUANpCW0_2PBthWF22-20" edge="1">
          <mxGeometry relative="1" as="geometry">
            <Array as="points">
              <mxPoint x="770" y="670" />
              <mxPoint x="770" y="990" />
              <mxPoint x="950" y="990" />
              <mxPoint x="950" y="1060" />
              <mxPoint x="1290" y="1060" />
              <mxPoint x="1290" y="680" />
            </Array>
            <mxPoint x="1270.0800000000002" y="720" as="targetPoint" />
          </mxGeometry>
        </mxCell>
        <mxCell id="zFS1pn2A8cmfrVWvFFyQ-79" style="edgeStyle=orthogonalEdgeStyle;rounded=0;orthogonalLoop=1;jettySize=auto;html=1;entryX=0;entryY=0.5;entryDx=0;entryDy=0;jumpStyle=arc;jumpSize=6;exitX=1;exitY=0.5;exitDx=0;exitDy=0;" parent="1" source="-hvyRLRQOOJ3VwnVLbOB-11" target="q9rqpO51LhmBKndgSOn--34" edge="1">
          <mxGeometry relative="1" as="geometry">
            <Array as="points">
              <mxPoint x="1060" y="490" />
              <mxPoint x="1060" y="390" />
              <mxPoint x="1360" y="390" />
              <mxPoint x="1360" y="270" />
            </Array>
          </mxGeometry>
        </mxCell>
        <mxCell id="JPoRV0-0kWKYk73e9sCu-5" style="edgeStyle=orthogonalEdgeStyle;rounded=0;orthogonalLoop=1;jettySize=auto;html=1;entryX=0;entryY=0.5;entryDx=0;entryDy=0;exitX=1;exitY=0.5;exitDx=0;exitDy=0;jumpStyle=arc;" parent="1" source="_H_bEt4n4NwgmmSnS2Ty-12" target="_H_bEt4n4NwgmmSnS2Ty-20" edge="1">
          <mxGeometry relative="1" as="geometry">
            <Array as="points">
              <mxPoint x="1350" y="940" />
              <mxPoint x="1350" y="821" />
            </Array>
          </mxGeometry>
        </mxCell>
        <mxCell id="zFS1pn2A8cmfrVWvFFyQ-14" style="edgeStyle=orthogonalEdgeStyle;rounded=0;orthogonalLoop=1;jettySize=auto;html=1;entryX=0;entryY=0.5;entryDx=0;entryDy=0;jumpStyle=arc;exitX=1;exitY=0.5;exitDx=0;exitDy=0;" parent="1" source="laC3dYbV331lfGwgBf-x-40" target="laC3dYbV331lfGwgBf-x-42" edge="1">
          <mxGeometry relative="1" as="geometry">
            <Array as="points">
              <mxPoint x="1390" y="150" />
            </Array>
          </mxGeometry>
        </mxCell>
        <mxCell id="JPoRV0-0kWKYk73e9sCu-13" value="" style="group" parent="1" vertex="1" connectable="0">
          <mxGeometry x="1390" y="580" width="80" height="130" as="geometry" />
        </mxCell>
        <mxCell id="-hvyRLRQOOJ3VwnVLbOB-57" value="ALU" style="whiteSpace=wrap;html=1;shadow=1;fontSize=18;fillColor=#f5f5f5;strokeColor=#666666;resizeWidth=0;comic=0;rotatable=1;treeFolding=0;collapsible=0;dropTarget=0;container=0;noLabel=0;portConstraintRotation=0;gradientColor=none;" parent="JPoRV0-0kWKYk73e9sCu-13" vertex="1">
          <mxGeometry width="80" height="130" as="geometry" />
        </mxCell>
        <mxCell id="F4LApp7SRapzV72RJLrX-6" value="ALUop" style="text;html=1;align=center;verticalAlign=middle;whiteSpace=wrap;rounded=0;container=0;" parent="JPoRV0-0kWKYk73e9sCu-13" vertex="1">
          <mxGeometry x="20" width="40" height="20" as="geometry" />
        </mxCell>
        <mxCell id="F4LApp7SRapzV72RJLrX-85" value="ALUresult" style="text;html=1;align=right;verticalAlign=middle;whiteSpace=wrap;rounded=0;container=0;" parent="JPoRV0-0kWKYk73e9sCu-13" vertex="1">
          <mxGeometry x="20" y="110" width="60" height="20" as="geometry" />
        </mxCell>
        <mxCell id="laC3dYbV331lfGwgBf-x-6" value="srcA" style="text;html=1;align=left;verticalAlign=middle;whiteSpace=wrap;rounded=0;container=0;" parent="JPoRV0-0kWKYk73e9sCu-13" vertex="1">
          <mxGeometry y="10" width="30" height="20" as="geometry" />
        </mxCell>
        <mxCell id="laC3dYbV331lfGwgBf-x-7" value="srcB" style="text;html=1;align=left;verticalAlign=middle;whiteSpace=wrap;rounded=0;container=0;" parent="JPoRV0-0kWKYk73e9sCu-13" vertex="1">
          <mxGeometry y="30" width="30" height="20" as="geometry" />
        </mxCell>
        <mxCell id="laC3dYbV331lfGwgBf-x-29" value="ALUzero" style="text;html=1;align=right;verticalAlign=middle;whiteSpace=wrap;rounded=0;container=0;" parent="JPoRV0-0kWKYk73e9sCu-13" vertex="1">
          <mxGeometry x="30" y="20" width="50" height="20" as="geometry" />
        </mxCell>
        <mxCell id="jQQxH6LwXFBK_Qau7PEY-26" value="J_Target" style="text;html=1;align=left;verticalAlign=middle;whiteSpace=wrap;rounded=0;" parent="1" vertex="1">
          <mxGeometry x="180" y="350" width="50" height="20" as="geometry" />
        </mxCell>
        <mxCell id="hefrhl2iVMpB-7Aj1aw6-2" value="Exception&lt;div&gt;Detector&lt;/div&gt;" style="whiteSpace=wrap;html=1;shadow=1;fontSize=18;fillColor=#f5f5f5;strokeColor=#666666;container=0;" parent="1" vertex="1">
          <mxGeometry x="440" y="640" width="120" height="80" as="geometry" />
        </mxCell>
        <mxCell id="hefrhl2iVMpB-7Aj1aw6-3" value="I_RD" style="text;html=1;align=left;verticalAlign=middle;whiteSpace=wrap;rounded=0;container=0;" parent="1" vertex="1">
          <mxGeometry x="440" y="640" width="30" height="20" as="geometry" />
        </mxCell>
        <mxCell id="hefrhl2iVMpB-7Aj1aw6-42" style="edgeStyle=orthogonalEdgeStyle;rounded=0;orthogonalLoop=1;jettySize=auto;html=1;entryX=0;entryY=0.5;entryDx=0;entryDy=0;exitX=0;exitY=0.5;exitDx=0;exitDy=0;" parent="1" source="hefrhl2iVMpB-7Aj1aw6-4" target="hefrhl2iVMpB-7Aj1aw6-24" edge="1">
          <mxGeometry relative="1" as="geometry">
            <Array as="points">
              <mxPoint x="410" y="710" />
              <mxPoint x="410" y="770" />
            </Array>
          </mxGeometry>
        </mxCell>
        <mxCell id="hefrhl2iVMpB-7Aj1aw6-4" value="Trap_Status" style="text;html=1;align=left;verticalAlign=middle;whiteSpace=wrap;rounded=0;container=0;" parent="1" vertex="1">
          <mxGeometry x="440" y="700" width="70" height="20" as="geometry" />
        </mxCell>
        <mxCell id="hefrhl2iVMpB-7Aj1aw6-12" style="edgeStyle=orthogonalEdgeStyle;rounded=0;orthogonalLoop=1;jettySize=auto;html=1;entryX=0;entryY=0.5;entryDx=0;entryDy=0;" parent="1" source="o8jE4zu5w3KYZrWDI-N--13" target="64JDVrVSjXghW2DnclTE-29" edge="1">
          <mxGeometry relative="1" as="geometry" />
        </mxCell>
        <mxCell id="hefrhl2iVMpB-7Aj1aw6-14" style="edgeStyle=orthogonalEdgeStyle;rounded=0;orthogonalLoop=1;jettySize=auto;html=1;entryX=0;entryY=0.5;entryDx=0;entryDy=0;jumpStyle=arc;" parent="1" source="hefrhl2iVMpB-7Aj1aw6-13" target="hefrhl2iVMpB-7Aj1aw6-3" edge="1">
          <mxGeometry relative="1" as="geometry">
            <Array as="points">
              <mxPoint x="350" y="600" />
              <mxPoint x="420" y="600" />
              <mxPoint x="420" y="650" />
            </Array>
          </mxGeometry>
        </mxCell>
        <mxCell id="hefrhl2iVMpB-7Aj1aw6-13" value="" style="shape=waypoint;sketch=0;size=6;pointerEvents=1;points=[];fillColor=none;resizable=0;rotatable=0;perimeter=centerPerimeter;snapToPoint=1;" parent="1" vertex="1">
          <mxGeometry x="340" y="530" width="20" height="20" as="geometry" />
        </mxCell>
        <mxCell id="hefrhl2iVMpB-7Aj1aw6-23" style="edgeStyle=orthogonalEdgeStyle;rounded=0;orthogonalLoop=1;jettySize=auto;html=1;entryX=0;entryY=0.5;entryDx=0;entryDy=0;jumpStyle=arc;" parent="1" source="hefrhl2iVMpB-7Aj1aw6-22" target="hefrhl2iVMpB-7Aj1aw6-20" edge="1">
          <mxGeometry relative="1" as="geometry">
            <Array as="points">
              <mxPoint x="350" y="860" />
              <mxPoint x="350" y="860" />
            </Array>
          </mxGeometry>
        </mxCell>
        <mxCell id="hefrhl2iVMpB-7Aj1aw6-22" value="" style="shape=waypoint;sketch=0;size=6;pointerEvents=1;points=[];fillColor=none;resizable=0;rotatable=0;perimeter=centerPerimeter;snapToPoint=1;" parent="1" vertex="1">
          <mxGeometry x="310" y="850" width="20" height="20" as="geometry" />
        </mxCell>
        <mxCell id="7fQUANpCW0_2PBthWF22-43" value="" style="shape=waypoint;sketch=0;size=6;pointerEvents=1;points=[];fillColor=none;resizable=0;rotatable=0;perimeter=centerPerimeter;snapToPoint=1;" parent="1" vertex="1">
          <mxGeometry x="1240" y="570" width="20" height="20" as="geometry" />
        </mxCell>
        <mxCell id="jQQxH6LwXFBK_Qau7PEY-24" value="PC" style="text;html=1;align=left;verticalAlign=middle;whiteSpace=wrap;rounded=0;" parent="1" vertex="1">
          <mxGeometry x="180" y="290" width="20" height="20" as="geometry" />
        </mxCell>
        <mxCell id="jQQxH6LwXFBK_Qau7PEY-25" value="Jump" style="text;html=1;align=left;verticalAlign=middle;whiteSpace=wrap;rounded=0;" parent="1" vertex="1">
          <mxGeometry x="180" y="250" width="40" height="20" as="geometry" />
        </mxCell>
        <mxCell id="jQQxH6LwXFBK_Qau7PEY-27" value="B_Target" style="text;html=1;align=left;verticalAlign=middle;whiteSpace=wrap;rounded=0;" parent="1" vertex="1">
          <mxGeometry x="180" y="330" width="60" height="20" as="geometry" />
        </mxCell>
        <mxCell id="jQQxH6LwXFBK_Qau7PEY-28" value="BTaken" style="text;html=1;align=left;verticalAlign=middle;whiteSpace=wrap;rounded=0;" parent="1" vertex="1">
          <mxGeometry x="180" y="270" width="50" height="20" as="geometry" />
        </mxCell>
        <mxCell id="jQQxH6LwXFBK_Qau7PEY-29" value="NextPC" style="text;html=1;align=right;verticalAlign=middle;whiteSpace=wrap;rounded=0;" parent="1" vertex="1">
          <mxGeometry x="250" y="270" width="50" height="20" as="geometry" />
        </mxCell>
        <mxCell id="hefrhl2iVMpB-7Aj1aw6-39" value="T_Target" style="text;html=1;align=left;verticalAlign=middle;whiteSpace=wrap;rounded=0;" parent="1" vertex="1">
          <mxGeometry x="180" y="370" width="50" height="20" as="geometry" />
        </mxCell>
        <mxCell id="hefrhl2iVMpB-7Aj1aw6-47" style="edgeStyle=orthogonalEdgeStyle;rounded=0;orthogonalLoop=1;jettySize=auto;html=1;entryX=0;entryY=0.5;entryDx=0;entryDy=0;jumpStyle=arc;exitX=1;exitY=0.5;exitDx=0;exitDy=0;" parent="1" source="hefrhl2iVMpB-7Aj1aw6-37" target="QJXn4PjGb355hVGx2Jd_-4" edge="1">
          <mxGeometry relative="1" as="geometry">
            <mxPoint x="840.0799999999998" y="830" as="targetPoint" />
            <Array as="points">
              <mxPoint x="730" y="840" />
            </Array>
          </mxGeometry>
        </mxCell>
        <mxCell id="QJXn4PjGb355hVGx2Jd_-26" value="" style="shape=waypoint;sketch=0;size=6;pointerEvents=1;points=[];fillColor=none;resizable=0;rotatable=0;perimeter=centerPerimeter;snapToPoint=1;" parent="1" vertex="1">
          <mxGeometry x="1000" y="850" width="20" height="20" as="geometry" />
        </mxCell>
        <mxCell id="fCNnA6YKo8tVsQt9WhIM-5" value="" style="group" parent="1" vertex="1" connectable="0">
          <mxGeometry x="1130" y="870" width="120" height="140" as="geometry" />
        </mxCell>
        <mxCell id="o8jE4zu5w3KYZrWDI-N--39" value="&lt;div&gt;&lt;span style=&quot;background-color: transparent;&quot;&gt;D. Cache&lt;/span&gt;&lt;br&gt;&lt;/div&gt;&lt;div&gt;&lt;span style=&quot;background-color: transparent;&quot;&gt;&lt;br&gt;&lt;/span&gt;&lt;/div&gt;&lt;div&gt;&lt;span style=&quot;background-color: transparent;&quot;&gt;&lt;br&gt;&lt;/span&gt;&lt;/div&gt;" style="whiteSpace=wrap;html=1;shadow=1;fontSize=18;fillColor=#f5f5f5;strokeColor=#666666;container=0;" parent="fCNnA6YKo8tVsQt9WhIM-5" vertex="1">
          <mxGeometry width="120" height="140" as="geometry" />
        </mxCell>
        <mxCell id="o8jE4zu5w3KYZrWDI-N--41" value="DC_Addr" style="text;html=1;align=left;verticalAlign=middle;whiteSpace=wrap;rounded=0;container=0;" parent="fCNnA6YKo8tVsQt9WhIM-5" vertex="1">
          <mxGeometry y="20" width="60" height="20" as="geometry" />
        </mxCell>
        <mxCell id="_H_bEt4n4NwgmmSnS2Ty-3" value="D.U_Addr" style="text;html=1;align=left;verticalAlign=middle;whiteSpace=wrap;rounded=0;" parent="fCNnA6YKo8tVsQt9WhIM-5" vertex="1">
          <mxGeometry y="80" width="60" height="20" as="geometry" />
        </mxCell>
        <mxCell id="_H_bEt4n4NwgmmSnS2Ty-4" value="D.U_Data" style="text;html=1;align=left;verticalAlign=middle;whiteSpace=wrap;rounded=0;" parent="fCNnA6YKo8tVsQt9WhIM-5" vertex="1">
          <mxGeometry y="60" width="60" height="20" as="geometry" />
        </mxCell>
        <mxCell id="_H_bEt4n4NwgmmSnS2Ty-12" value="DC_RD" style="text;html=1;align=right;verticalAlign=middle;whiteSpace=wrap;rounded=0;container=0;" parent="fCNnA6YKo8tVsQt9WhIM-5" vertex="1">
          <mxGeometry x="60" y="60" width="60" height="20" as="geometry" />
        </mxCell>
        <mxCell id="_H_bEt4n4NwgmmSnS2Ty-13" value="DC_Stats" style="text;html=1;align=right;verticalAlign=middle;whiteSpace=wrap;rounded=0;container=0;" parent="fCNnA6YKo8tVsQt9WhIM-5" vertex="1">
          <mxGeometry x="60" y="120" width="60" height="20" as="geometry" />
        </mxCell>
        <mxCell id="fCNnA6YKo8tVsQt9WhIM-6" value="DC_WD" style="text;html=1;align=left;verticalAlign=middle;whiteSpace=wrap;rounded=0;container=0;" parent="fCNnA6YKo8tVsQt9WhIM-5" vertex="1">
          <mxGeometry y="120" width="60" height="20" as="geometry" />
        </mxCell>
        <mxCell id="fCNnA6YKo8tVsQt9WhIM-8" value="DC_Write" style="text;html=1;align=left;verticalAlign=middle;whiteSpace=wrap;rounded=0;container=0;" parent="fCNnA6YKo8tVsQt9WhIM-5" vertex="1">
          <mxGeometry width="60" height="20" as="geometry" />
        </mxCell>
        <mxCell id="IpAbVSy56P0OoJBHXVlp-1" value="B2M_Addr" style="text;html=1;align=right;verticalAlign=middle;whiteSpace=wrap;rounded=0;container=0;" parent="fCNnA6YKo8tVsQt9WhIM-5" vertex="1">
          <mxGeometry x="60" width="60" height="20" as="geometry" />
        </mxCell>
        <mxCell id="IpAbVSy56P0OoJBHXVlp-3" value="B2M_Data" style="text;html=1;align=right;verticalAlign=middle;whiteSpace=wrap;rounded=0;container=0;" parent="fCNnA6YKo8tVsQt9WhIM-5" vertex="1">
          <mxGeometry x="60" y="20" width="60" height="20" as="geometry" />
        </mxCell>
        <mxCell id="IpAbVSy56P0OoJBHXVlp-4" value="WriteDone" style="text;html=1;align=right;verticalAlign=middle;whiteSpace=wrap;rounded=0;container=0;" parent="fCNnA6YKo8tVsQt9WhIM-5" vertex="1">
          <mxGeometry x="60" y="80" width="60" height="20" as="geometry" />
        </mxCell>
        <mxCell id="Mn9ajNqdIyL5JpjhL2zD-4" value="B2C_Flush" style="text;html=1;align=left;verticalAlign=middle;whiteSpace=wrap;rounded=0;" vertex="1" parent="fCNnA6YKo8tVsQt9WhIM-5">
          <mxGeometry y="100" width="80" height="20" as="geometry" />
        </mxCell>
        <mxCell id="IpAbVSy56P0OoJBHXVlp-6" style="edgeStyle=orthogonalEdgeStyle;rounded=0;orthogonalLoop=1;jettySize=auto;html=1;entryX=0;entryY=0.5;entryDx=0;entryDy=0;jumpStyle=arc;" parent="1" source="F4LApp7SRapzV72RJLrX-44" target="_H_bEt4n4NwgmmSnS2Ty-19" edge="1">
          <mxGeometry relative="1" as="geometry">
            <Array as="points">
              <mxPoint x="1350" y="810" />
              <mxPoint x="1350" y="800" />
            </Array>
          </mxGeometry>
        </mxCell>
        <mxCell id="_H_bEt4n4NwgmmSnS2Ty-2" style="edgeStyle=orthogonalEdgeStyle;rounded=0;orthogonalLoop=1;jettySize=auto;html=1;entryX=0;entryY=0.5;entryDx=0;entryDy=0;jumpStyle=arc;" parent="1" source="_H_bEt4n4NwgmmSnS2Ty-1" target="o8jE4zu5w3KYZrWDI-N--41" edge="1">
          <mxGeometry relative="1" as="geometry" />
        </mxCell>
        <mxCell id="IpAbVSy56P0OoJBHXVlp-13" style="edgeStyle=orthogonalEdgeStyle;rounded=0;orthogonalLoop=1;jettySize=auto;html=1;entryX=0;entryY=0.5;entryDx=0;entryDy=0;jumpStyle=arc;" parent="1" source="7fQUANpCW0_2PBthWF22-14" target="laC3dYbV331lfGwgBf-x-6" edge="1">
          <mxGeometry relative="1" as="geometry" />
        </mxCell>
        <mxCell id="t_UrKG9QsF_eRvzr-5uy-1" value="Trapped" style="text;html=1;align=left;verticalAlign=middle;whiteSpace=wrap;rounded=0;" parent="1" vertex="1">
          <mxGeometry x="180" y="230" width="60" height="20" as="geometry" />
        </mxCell>
        <mxCell id="t_UrKG9QsF_eRvzr-5uy-2" value="Trapped" style="text;html=1;align=right;verticalAlign=middle;whiteSpace=wrap;rounded=0;" parent="1" vertex="1">
          <mxGeometry x="500" y="640" width="60" height="20" as="geometry" />
        </mxCell>
        <mxCell id="64JDVrVSjXghW2DnclTE-9" style="edgeStyle=orthogonalEdgeStyle;rounded=0;orthogonalLoop=1;jettySize=auto;html=1;entryX=0;entryY=0.5;entryDx=0;entryDy=0;" parent="1" target="laC3dYbV331lfGwgBf-x-7" edge="1">
          <mxGeometry relative="1" as="geometry">
            <mxPoint x="1360.0500000000002" y="680" as="sourcePoint" />
            <mxPoint x="1390" y="619" as="targetPoint" />
            <Array as="points">
              <mxPoint x="1370" y="680" />
              <mxPoint x="1370" y="620" />
            </Array>
          </mxGeometry>
        </mxCell>
        <mxCell id="64JDVrVSjXghW2DnclTE-19" value="" style="group" parent="1" vertex="1" connectable="0">
          <mxGeometry x="880" y="580" width="120" height="140" as="geometry" />
        </mxCell>
        <mxCell id="3a17f1ce550125da-2" value="Register&lt;div&gt;File&lt;/div&gt;" style="whiteSpace=wrap;html=1;shadow=1;fontSize=18;fillColor=#f5f5f5;strokeColor=#666666;container=0;" parent="64JDVrVSjXghW2DnclTE-19" vertex="1">
          <mxGeometry width="120" height="140" as="geometry" />
        </mxCell>
        <mxCell id="JqTOLJbfiFGYhZ1s0W8t-5" value="RA1" style="text;html=1;align=left;verticalAlign=middle;whiteSpace=wrap;rounded=0;container=0;" parent="64JDVrVSjXghW2DnclTE-19" vertex="1">
          <mxGeometry y="20" width="40" height="20" as="geometry" />
        </mxCell>
        <mxCell id="JqTOLJbfiFGYhZ1s0W8t-8" value="RA2" style="text;html=1;align=left;verticalAlign=middle;whiteSpace=wrap;rounded=0;container=0;" parent="64JDVrVSjXghW2DnclTE-19" vertex="1">
          <mxGeometry y="40" width="40" height="20" as="geometry" />
        </mxCell>
        <mxCell id="JqTOLJbfiFGYhZ1s0W8t-10" value="WA" style="text;html=1;align=left;verticalAlign=middle;whiteSpace=wrap;rounded=0;container=0;" parent="64JDVrVSjXghW2DnclTE-19" vertex="1">
          <mxGeometry y="60" width="40" height="20" as="geometry" />
        </mxCell>
        <mxCell id="JqTOLJbfiFGYhZ1s0W8t-13" value="RF_WD" style="text;html=1;align=left;verticalAlign=middle;whiteSpace=wrap;rounded=0;container=0;" parent="64JDVrVSjXghW2DnclTE-19" vertex="1">
          <mxGeometry y="120" width="60" height="20" as="geometry" />
        </mxCell>
        <mxCell id="JqTOLJbfiFGYhZ1s0W8t-16" value="RD1" style="text;html=1;align=right;verticalAlign=middle;whiteSpace=wrap;rounded=0;container=0;" parent="64JDVrVSjXghW2DnclTE-19" vertex="1">
          <mxGeometry x="80" y="10" width="40" height="20" as="geometry" />
        </mxCell>
        <mxCell id="zFS1pn2A8cmfrVWvFFyQ-1" value="RegWrite" style="text;html=1;align=left;verticalAlign=middle;whiteSpace=wrap;rounded=0;container=0;" parent="64JDVrVSjXghW2DnclTE-19" vertex="1">
          <mxGeometry width="60" height="20" as="geometry" />
        </mxCell>
        <mxCell id="YIYq9nX8O7GQGufym3ho-18" value="RD2" style="text;html=1;align=right;verticalAlign=middle;whiteSpace=wrap;rounded=0;container=0;" parent="64JDVrVSjXghW2DnclTE-19" vertex="1">
          <mxGeometry x="80" y="40" width="40" height="20" as="geometry" />
        </mxCell>
        <mxCell id="64JDVrVSjXghW2DnclTE-23" value="" style="group" parent="1" vertex="1" connectable="0">
          <mxGeometry x="620" y="600" width="80" height="80" as="geometry" />
        </mxCell>
        <mxCell id="laC3dYbV331lfGwgBf-x-15" value="imm_gen" style="whiteSpace=wrap;html=1;shadow=1;fontSize=18;fillColor=#f5f5f5;strokeColor=#666666;container=0;" parent="64JDVrVSjXghW2DnclTE-23" vertex="1">
          <mxGeometry width="80" height="80" as="geometry" />
        </mxCell>
        <mxCell id="laC3dYbV331lfGwgBf-x-16" value="imm" style="text;html=1;align=center;verticalAlign=middle;whiteSpace=wrap;rounded=0;container=0;" parent="64JDVrVSjXghW2DnclTE-23" vertex="1">
          <mxGeometry width="30" height="20" as="geometry" />
        </mxCell>
        <mxCell id="laC3dYbV331lfGwgBf-x-17" value="&lt;font style=&quot;font-size: 10px;&quot;&gt;ex-imm&lt;/font&gt;" style="text;html=1;align=right;verticalAlign=middle;whiteSpace=wrap;rounded=0;container=0;" parent="64JDVrVSjXghW2DnclTE-23" vertex="1">
          <mxGeometry x="40" y="60" width="40" height="20" as="geometry" />
        </mxCell>
        <mxCell id="64JDVrVSjXghW2DnclTE-31" style="edgeStyle=orthogonalEdgeStyle;rounded=0;orthogonalLoop=1;jettySize=auto;html=1;entryX=0;entryY=0.5;entryDx=0;entryDy=0;exitX=0.5;exitY=0;exitDx=0;exitDy=0;" parent="1" source="64JDVrVSjXghW2DnclTE-28" target="-hvyRLRQOOJ3VwnVLbOB-2" edge="1">
          <mxGeometry relative="1" as="geometry">
            <Array as="points">
              <mxPoint x="420" y="550" />
              <mxPoint x="420" y="490" />
            </Array>
          </mxGeometry>
        </mxCell>
        <mxCell id="64JDVrVSjXghW2DnclTE-32" value="" style="group" parent="1" vertex="1" connectable="0">
          <mxGeometry x="430" y="760" width="140" height="120" as="geometry" />
        </mxCell>
        <mxCell id="hefrhl2iVMpB-7Aj1aw6-18" value="&lt;div&gt;Trap_Control&lt;/div&gt;" style="whiteSpace=wrap;html=1;shadow=1;fontSize=18;fillColor=#f5f5f5;strokeColor=#666666;container=0;" parent="64JDVrVSjXghW2DnclTE-32" vertex="1">
          <mxGeometry width="140" height="120" as="geometry" />
        </mxCell>
        <mxCell id="IpAbVSy56P0OoJBHXVlp-24" value="IC_Clean" style="text;html=1;align=left;verticalAlign=middle;whiteSpace=wrap;rounded=0;container=0;" parent="64JDVrVSjXghW2DnclTE-32" vertex="1">
          <mxGeometry y="20" width="60" height="20" as="geometry" />
        </mxCell>
        <mxCell id="hefrhl2iVMpB-7Aj1aw6-20" value="PC" style="text;html=1;align=left;verticalAlign=middle;whiteSpace=wrap;rounded=0;container=0;" parent="64JDVrVSjXghW2DnclTE-32" vertex="1">
          <mxGeometry y="90" width="30" height="20" as="geometry" />
        </mxCell>
        <mxCell id="hefrhl2iVMpB-7Aj1aw6-35" value="T_Target" style="text;html=1;align=right;verticalAlign=middle;whiteSpace=wrap;rounded=0;container=0;" parent="64JDVrVSjXghW2DnclTE-32" vertex="1">
          <mxGeometry x="90" y="20" width="50" height="20" as="geometry" />
        </mxCell>
        <mxCell id="hefrhl2iVMpB-7Aj1aw6-36" value="CSR_WD" style="text;html=1;align=right;verticalAlign=middle;whiteSpace=wrap;rounded=0;container=0;" parent="64JDVrVSjXghW2DnclTE-32" vertex="1">
          <mxGeometry x="80" y="100" width="60" height="20" as="geometry" />
        </mxCell>
        <mxCell id="hefrhl2iVMpB-7Aj1aw6-24" value="Trap_Status" style="text;html=1;align=left;verticalAlign=middle;whiteSpace=wrap;rounded=0;container=0;" parent="64JDVrVSjXghW2DnclTE-32" vertex="1">
          <mxGeometry width="70" height="20" as="geometry" />
        </mxCell>
        <mxCell id="hefrhl2iVMpB-7Aj1aw6-37" value="CSR_addr" style="text;html=1;align=right;verticalAlign=middle;whiteSpace=wrap;rounded=0;container=0;" parent="64JDVrVSjXghW2DnclTE-32" vertex="1">
          <mxGeometry x="80" y="70" width="60" height="20" as="geometry" />
        </mxCell>
        <mxCell id="hefrhl2iVMpB-7Aj1aw6-48" value="mtvec" style="text;html=1;align=left;verticalAlign=middle;whiteSpace=wrap;rounded=0;container=0;" parent="64JDVrVSjXghW2DnclTE-32" vertex="1">
          <mxGeometry y="100" width="40" height="20" as="geometry" />
        </mxCell>
        <mxCell id="64JDVrVSjXghW2DnclTE-36" value="Dbg.Mode" style="text;html=1;align=left;verticalAlign=middle;whiteSpace=wrap;rounded=0;" parent="64JDVrVSjXghW2DnclTE-32" vertex="1">
          <mxGeometry y="70" width="60" height="20" as="geometry" />
        </mxCell>
        <mxCell id="VjuZ78g7bgVoYlYuGaa_-13" value="&lt;font style=&quot;font-size: 9px;&quot;&gt;contains&amp;nbsp;&lt;/font&gt;&lt;div&gt;&lt;font style=&quot;font-size: 9px;&quot;&gt;mepc, mcause&lt;/font&gt;&lt;/div&gt;&lt;div&gt;&lt;font style=&quot;font-size: 9px;&quot;&gt;TrapHandler Logic.&lt;/font&gt;&lt;/div&gt;" style="text;html=1;align=left;verticalAlign=middle;whiteSpace=wrap;rounded=0;fontSize=4;" parent="1" vertex="1">
          <mxGeometry x="570" y="800" width="90" height="30" as="geometry" />
        </mxCell>
        <mxCell id="64JDVrVSjXghW2DnclTE-37" style="edgeStyle=orthogonalEdgeStyle;rounded=0;orthogonalLoop=1;jettySize=auto;html=1;entryX=1;entryY=0.5;entryDx=0;entryDy=0;" parent="1" source="64JDVrVSjXghW2DnclTE-36" target="64JDVrVSjXghW2DnclTE-28" edge="1">
          <mxGeometry relative="1" as="geometry" />
        </mxCell>
        <mxCell id="pUmS0iTI--zcHn9lRDva-4" value="" style="group" parent="1" vertex="1" connectable="0">
          <mxGeometry x="1560" y="810" width="100" height="140" as="geometry" />
        </mxCell>
        <mxCell id="-hvyRLRQOOJ3VwnVLbOB-44" value="&lt;div&gt;&lt;br&gt;&lt;/div&gt;" style="text;html=1;align=center;verticalAlign=middle;whiteSpace=wrap;rounded=0;fontFamily=Helvetica;fontSize=18;fontColor=default;container=0;" parent="pUmS0iTI--zcHn9lRDva-4" vertex="1">
          <mxGeometry y="70" width="60" height="30" as="geometry" />
        </mxCell>
        <mxCell id="-hvyRLRQOOJ3VwnVLbOB-43" value="" style="shape=trapezoid;perimeter=trapezoidPerimeter;whiteSpace=wrap;html=1;fixedSize=1;shadow=1;strokeColor=#666666;align=center;verticalAlign=middle;fontFamily=Helvetica;fontSize=18;fontColor=default;fillColor=#f5f5f5;rotation=90;container=0;" parent="pUmS0iTI--zcHn9lRDva-4" vertex="1">
          <mxGeometry x="-20" y="20" width="140" height="100" as="geometry" />
        </mxCell>
        <mxCell id="F4LApp7SRapzV72RJLrX-87" value="&lt;span style=&quot;font-size: 18px;&quot;&gt;00&lt;/span&gt;" style="text;html=1;align=left;verticalAlign=middle;whiteSpace=wrap;rounded=0;container=0;" parent="pUmS0iTI--zcHn9lRDva-4" vertex="1">
          <mxGeometry y="20" width="30" height="20" as="geometry" />
        </mxCell>
        <mxCell id="F4LApp7SRapzV72RJLrX-88" value="&lt;span style=&quot;font-size: 18px;&quot;&gt;01&lt;/span&gt;" style="text;html=1;align=left;verticalAlign=middle;whiteSpace=wrap;rounded=0;container=0;" parent="pUmS0iTI--zcHn9lRDva-4" vertex="1">
          <mxGeometry y="50" width="40" height="20" as="geometry" />
        </mxCell>
        <mxCell id="F4LApp7SRapzV72RJLrX-89" value="&lt;span style=&quot;font-size: 18px;&quot;&gt;10&lt;/span&gt;" style="text;html=1;align=left;verticalAlign=middle;whiteSpace=wrap;rounded=0;container=0;" parent="pUmS0iTI--zcHn9lRDva-4" vertex="1">
          <mxGeometry y="70" width="30" height="40" as="geometry" />
        </mxCell>
        <mxCell id="F4LApp7SRapzV72RJLrX-91" value="&lt;font style=&quot;font-size: 10px;&quot;&gt;ALUresult&lt;/font&gt;" style="text;html=1;align=left;verticalAlign=middle;whiteSpace=wrap;rounded=0;container=0;" parent="pUmS0iTI--zcHn9lRDva-4" vertex="1">
          <mxGeometry x="30" y="30" width="50" height="10" as="geometry" />
        </mxCell>
        <mxCell id="F4LApp7SRapzV72RJLrX-92" value="&lt;font style=&quot;font-size: 10px;&quot;&gt;Data Memory&lt;/font&gt;" style="text;html=1;align=left;verticalAlign=middle;whiteSpace=wrap;rounded=0;container=0;" parent="pUmS0iTI--zcHn9lRDva-4" vertex="1">
          <mxGeometry x="30" y="50" width="70" height="20" as="geometry" />
        </mxCell>
        <mxCell id="F4LApp7SRapzV72RJLrX-93" value="&lt;span style=&quot;font-size: 10px;&quot;&gt;CSR_RD&lt;/span&gt;" style="text;html=1;align=left;verticalAlign=middle;whiteSpace=wrap;rounded=0;container=0;" parent="pUmS0iTI--zcHn9lRDva-4" vertex="1">
          <mxGeometry x="30" y="80" width="70" height="20" as="geometry" />
        </mxCell>
        <mxCell id="7fQUANpCW0_2PBthWF22-2" value="&lt;span style=&quot;font-size: 18px;&quot;&gt;11&lt;/span&gt;" style="text;html=1;align=left;verticalAlign=middle;whiteSpace=wrap;rounded=0;container=0;" parent="pUmS0iTI--zcHn9lRDva-4" vertex="1">
          <mxGeometry y="110" width="30" height="20" as="geometry" />
        </mxCell>
        <mxCell id="7fQUANpCW0_2PBthWF22-3" value="&lt;span style=&quot;font-size: 10px;&quot;&gt;PC+4&lt;/span&gt;" style="text;html=1;align=left;verticalAlign=middle;whiteSpace=wrap;rounded=0;container=0;" parent="pUmS0iTI--zcHn9lRDva-4" vertex="1">
          <mxGeometry x="30" y="110" width="30" height="20" as="geometry" />
        </mxCell>
        <mxCell id="pUmS0iTI--zcHn9lRDva-7" value="" style="group" parent="1" vertex="1" connectable="0">
          <mxGeometry x="200" y="720" width="80" height="80" as="geometry" />
        </mxCell>
        <mxCell id="wyz3YsZ-V2g4d5ax0XK7-8" value="I. Mem" style="whiteSpace=wrap;html=1;shadow=1;fontSize=18;fillColor=#f5f5f5;strokeColor=#666666;" parent="pUmS0iTI--zcHn9lRDva-7" vertex="1">
          <mxGeometry width="80" height="80" as="geometry" />
        </mxCell>
        <mxCell id="wyz3YsZ-V2g4d5ax0XK7-9" value="PC" style="text;html=1;align=left;verticalAlign=middle;whiteSpace=wrap;rounded=0;" parent="pUmS0iTI--zcHn9lRDva-7" vertex="1">
          <mxGeometry width="20" height="20" as="geometry" />
        </mxCell>
        <mxCell id="wyz3YsZ-V2g4d5ax0XK7-10" value="IM_RD" style="text;html=1;align=center;verticalAlign=middle;whiteSpace=wrap;rounded=0;" parent="pUmS0iTI--zcHn9lRDva-7" vertex="1">
          <mxGeometry x="40" width="40" height="20" as="geometry" />
        </mxCell>
        <mxCell id="pUmS0iTI--zcHn9lRDva-11" value="" style="group" parent="1" vertex="1" connectable="0">
          <mxGeometry x="440" y="460" width="120" height="160" as="geometry" />
        </mxCell>
        <mxCell id="-hvyRLRQOOJ3VwnVLbOB-1" value="&lt;div&gt;&lt;span style=&quot;background-color: transparent;&quot;&gt;Instruction&lt;/span&gt;&lt;br&gt;&lt;/div&gt;&lt;div&gt;Decoder&lt;/div&gt;" style="whiteSpace=wrap;html=1;shadow=1;fontSize=18;fillColor=#f5f5f5;strokeColor=#666666;" parent="pUmS0iTI--zcHn9lRDva-11" vertex="1">
          <mxGeometry width="120" height="160" as="geometry" />
        </mxCell>
        <mxCell id="-hvyRLRQOOJ3VwnVLbOB-2" value="I_RD" style="text;html=1;align=left;verticalAlign=middle;whiteSpace=wrap;rounded=0;" parent="pUmS0iTI--zcHn9lRDva-11" vertex="1">
          <mxGeometry y="20" width="40" height="20" as="geometry" />
        </mxCell>
        <mxCell id="-hvyRLRQOOJ3VwnVLbOB-6" value="opcode" style="text;html=1;align=right;verticalAlign=middle;whiteSpace=wrap;rounded=0;" parent="pUmS0iTI--zcHn9lRDva-11" vertex="1">
          <mxGeometry x="70" width="50" height="20" as="geometry" />
        </mxCell>
        <mxCell id="-hvyRLRQOOJ3VwnVLbOB-7" value="&lt;div style=&quot;&quot;&gt;&lt;span style=&quot;background-color: transparent;&quot;&gt;rs1&lt;/span&gt;&lt;/div&gt;" style="text;html=1;align=right;verticalAlign=middle;whiteSpace=wrap;rounded=0;" parent="pUmS0iTI--zcHn9lRDva-11" vertex="1">
          <mxGeometry x="100" y="70" width="20" height="20" as="geometry" />
        </mxCell>
        <mxCell id="-hvyRLRQOOJ3VwnVLbOB-8" value="rs2" style="text;html=1;align=right;verticalAlign=middle;whiteSpace=wrap;rounded=0;" parent="pUmS0iTI--zcHn9lRDva-11" vertex="1">
          <mxGeometry x="100" y="90" width="20" height="20" as="geometry" />
        </mxCell>
        <mxCell id="-hvyRLRQOOJ3VwnVLbOB-9" value="rd" style="text;html=1;align=right;verticalAlign=middle;whiteSpace=wrap;rounded=0;" parent="pUmS0iTI--zcHn9lRDva-11" vertex="1">
          <mxGeometry x="100" y="110" width="20" height="20" as="geometry" />
        </mxCell>
        <mxCell id="-hvyRLRQOOJ3VwnVLbOB-10" value="imm" style="text;html=1;align=right;verticalAlign=middle;whiteSpace=wrap;rounded=0;" parent="pUmS0iTI--zcHn9lRDva-11" vertex="1">
          <mxGeometry x="80" y="140" width="40" height="20" as="geometry" />
        </mxCell>
        <mxCell id="-hvyRLRQOOJ3VwnVLbOB-11" value="funct3" style="text;html=1;align=right;verticalAlign=middle;whiteSpace=wrap;rounded=0;" parent="pUmS0iTI--zcHn9lRDva-11" vertex="1">
          <mxGeometry x="80" y="20" width="40" height="20" as="geometry" />
        </mxCell>
        <mxCell id="-hvyRLRQOOJ3VwnVLbOB-12" value="funct7" style="text;html=1;align=right;verticalAlign=middle;whiteSpace=wrap;rounded=0;" parent="pUmS0iTI--zcHn9lRDva-11" vertex="1">
          <mxGeometry x="80" y="40" width="40" height="20" as="geometry" />
        </mxCell>
        <mxCell id="vC3kN3sA0wpL92mDHwyi-3" value="" style="group" parent="1" vertex="1" connectable="0">
          <mxGeometry x="1130" y="460" width="100" height="120" as="geometry" />
        </mxCell>
        <mxCell id="-hvyRLRQOOJ3VwnVLbOB-56" value="&lt;div&gt;&lt;br&gt;&lt;/div&gt;ALU&lt;div&gt;Control&lt;/div&gt;" style="whiteSpace=wrap;html=1;shadow=1;fontSize=18;fillColor=#f5f5f5;strokeColor=#666666;" parent="vC3kN3sA0wpL92mDHwyi-3" vertex="1">
          <mxGeometry width="100" height="120" as="geometry" />
        </mxCell>
        <mxCell id="-hvyRLRQOOJ3VwnVLbOB-64" value="funct3" style="text;html=1;align=left;verticalAlign=middle;whiteSpace=wrap;rounded=0;" parent="vC3kN3sA0wpL92mDHwyi-3" vertex="1">
          <mxGeometry y="20" width="40" height="20" as="geometry" />
        </mxCell>
        <mxCell id="-hvyRLRQOOJ3VwnVLbOB-65" value="funct7" style="text;html=1;align=left;verticalAlign=middle;whiteSpace=wrap;rounded=0;" parent="vC3kN3sA0wpL92mDHwyi-3" vertex="1">
          <mxGeometry y="40" width="30" height="20" as="geometry" />
        </mxCell>
        <mxCell id="F4LApp7SRapzV72RJLrX-1" value="ALUop" style="text;html=1;align=right;verticalAlign=middle;whiteSpace=wrap;rounded=0;" parent="vC3kN3sA0wpL92mDHwyi-3" vertex="1">
          <mxGeometry x="60" y="90" width="40" height="20" as="geometry" />
        </mxCell>
        <mxCell id="IpAbVSy56P0OoJBHXVlp-23" value="opcode" style="text;html=1;align=left;verticalAlign=middle;whiteSpace=wrap;rounded=0;" parent="vC3kN3sA0wpL92mDHwyi-3" vertex="1">
          <mxGeometry width="60" height="20" as="geometry" />
        </mxCell>
        <mxCell id="64JDVrVSjXghW2DnclTE-1" value="imm" style="text;html=1;align=left;verticalAlign=middle;whiteSpace=wrap;rounded=0;" parent="vC3kN3sA0wpL92mDHwyi-3" vertex="1">
          <mxGeometry y="80" width="40" height="20" as="geometry" />
        </mxCell>
        <mxCell id="vC3kN3sA0wpL92mDHwyi-11" style="edgeStyle=orthogonalEdgeStyle;rounded=0;orthogonalLoop=1;jettySize=auto;html=1;entryX=0;entryY=0.5;entryDx=0;entryDy=0;" parent="1" source="vC3kN3sA0wpL92mDHwyi-4" target="QJXn4PjGb355hVGx2Jd_-3" edge="1">
          <mxGeometry relative="1" as="geometry">
            <Array as="points">
              <mxPoint x="600" y="700" />
              <mxPoint x="680" y="700" />
              <mxPoint x="680" y="820" />
              <mxPoint x="740" y="820" />
            </Array>
          </mxGeometry>
        </mxCell>
        <mxCell id="vC3kN3sA0wpL92mDHwyi-4" value="" style="shape=waypoint;sketch=0;size=6;pointerEvents=1;points=[];fillColor=none;resizable=0;rotatable=0;perimeter=centerPerimeter;snapToPoint=1;" parent="1" vertex="1">
          <mxGeometry x="590" y="600" width="20" height="20" as="geometry" />
        </mxCell>
        <mxCell id="QWSBbdvPpNymhQ5q6x3e-20" style="edgeStyle=orthogonalEdgeStyle;rounded=0;orthogonalLoop=1;jettySize=auto;html=1;entryX=0;entryY=0.5;entryDx=0;entryDy=0;exitX=0.5;exitY=0;exitDx=0;exitDy=0;jumpStyle=arc;" parent="1" source="QJXn4PjGb355hVGx2Jd_-12" target="jGIxOcGe_lyUybQSf8QV-24" edge="1">
          <mxGeometry relative="1" as="geometry">
            <Array as="points">
              <mxPoint x="840" y="890" />
            </Array>
            <mxPoint x="780.5819744014046" y="922.9600000000003" as="sourcePoint" />
          </mxGeometry>
        </mxCell>
        <mxCell id="vC3kN3sA0wpL92mDHwyi-14" style="edgeStyle=orthogonalEdgeStyle;rounded=0;orthogonalLoop=1;jettySize=auto;html=1;entryX=0;entryY=0.5;entryDx=0;entryDy=0;" parent="1" source="vC3kN3sA0wpL92mDHwyi-13" target="QJXn4PjGb355hVGx2Jd_-14" edge="1">
          <mxGeometry relative="1" as="geometry">
            <Array as="points">
              <mxPoint x="680" y="890" />
            </Array>
          </mxGeometry>
        </mxCell>
        <mxCell id="vC3kN3sA0wpL92mDHwyi-13" value="" style="shape=waypoint;sketch=0;size=6;pointerEvents=1;points=[];fillColor=none;resizable=0;rotatable=0;perimeter=centerPerimeter;snapToPoint=1;" parent="1" vertex="1">
          <mxGeometry x="670" y="810" width="20" height="20" as="geometry" />
        </mxCell>
        <mxCell id="vC3kN3sA0wpL92mDHwyi-15" style="edgeStyle=orthogonalEdgeStyle;rounded=0;orthogonalLoop=1;jettySize=auto;html=1;entryX=0;entryY=0.5;entryDx=0;entryDy=0;jumpStyle=arc;" parent="1" source="QJXn4PjGb355hVGx2Jd_-2" target="jGIxOcGe_lyUybQSf8QV-23" edge="1">
          <mxGeometry relative="1" as="geometry">
            <Array as="points">
              <mxPoint x="840" y="830" />
              <mxPoint x="840" y="870" />
            </Array>
          </mxGeometry>
        </mxCell>
        <mxCell id="vC3kN3sA0wpL92mDHwyi-6" style="edgeStyle=orthogonalEdgeStyle;rounded=0;orthogonalLoop=1;jettySize=auto;html=1;entryX=0;entryY=0.5;entryDx=0;entryDy=0;jumpStyle=arc;" parent="1" source="hefrhl2iVMpB-7Aj1aw6-36" target="QJXn4PjGb355hVGx2Jd_-13" edge="1">
          <mxGeometry relative="1" as="geometry" />
        </mxCell>
        <mxCell id="vC3kN3sA0wpL92mDHwyi-25" value="" style="group" parent="1" vertex="1" connectable="0">
          <mxGeometry x="860" y="730" width="120" height="180" as="geometry" />
        </mxCell>
        <mxCell id="vC3kN3sA0wpL92mDHwyi-22" value="" style="edgeStyle=none;orthogonalLoop=1;jettySize=auto;html=1;rounded=0;entryX=0;entryY=0.5;entryDx=0;entryDy=0;" parent="vC3kN3sA0wpL92mDHwyi-25" target="QWSBbdvPpNymhQ5q6x3e-10" edge="1">
          <mxGeometry width="100" relative="1" as="geometry">
            <mxPoint x="20" as="sourcePoint" />
            <mxPoint x="27" y="9.720000000000027" as="targetPoint" />
            <Array as="points" />
          </mxGeometry>
        </mxCell>
        <mxCell id="QWSBbdvPpNymhQ5q6x3e-15" value="CLK" style="text;html=1;align=center;verticalAlign=middle;whiteSpace=wrap;rounded=0;container=0;" parent="vC3kN3sA0wpL92mDHwyi-25" vertex="1">
          <mxGeometry x="20" width="40" height="20" as="geometry" />
        </mxCell>
        <mxCell id="QJXn4PjGb355hVGx2Jd_-19" value="" style="edgeStyle=none;orthogonalLoop=1;jettySize=auto;html=1;rounded=0;entryX=0.5;entryY=0;entryDx=0;entryDy=0;" parent="vC3kN3sA0wpL92mDHwyi-25" target="jGIxOcGe_lyUybQSf8QV-22" edge="1">
          <mxGeometry width="100" relative="1" as="geometry">
            <mxPoint x="60" as="sourcePoint" />
            <mxPoint x="47.5" y="20.67999999999995" as="targetPoint" />
            <Array as="points" />
          </mxGeometry>
        </mxCell>
        <mxCell id="QWSBbdvPpNymhQ5q6x3e-16" value="RST" style="text;html=1;align=center;verticalAlign=middle;whiteSpace=wrap;rounded=0;container=0;" parent="vC3kN3sA0wpL92mDHwyi-25" vertex="1">
          <mxGeometry x="60" width="40" height="20" as="geometry" />
        </mxCell>
        <mxCell id="jGIxOcGe_lyUybQSf8QV-22" value="&lt;div&gt;&lt;span style=&quot;background-color: transparent;&quot;&gt;&lt;br&gt;&lt;/span&gt;&lt;/div&gt;&lt;div&gt;&lt;span style=&quot;background-color: transparent;&quot;&gt;CSR&lt;/span&gt;&lt;br&gt;&lt;/div&gt;&lt;div&gt;&lt;span style=&quot;background-color: transparent;&quot;&gt;File&lt;/span&gt;&lt;/div&gt;" style="whiteSpace=wrap;html=1;shadow=1;fontSize=18;fillColor=#f5f5f5;strokeColor=#666666;container=0;" parent="vC3kN3sA0wpL92mDHwyi-25" vertex="1">
          <mxGeometry y="20" width="120" height="160" as="geometry" />
        </mxCell>
        <mxCell id="jGIxOcGe_lyUybQSf8QV-23" value="CSR_addr" style="text;html=1;align=left;verticalAlign=middle;whiteSpace=wrap;rounded=0;container=0;" parent="vC3kN3sA0wpL92mDHwyi-25" vertex="1">
          <mxGeometry y="130" width="60" height="20" as="geometry" />
        </mxCell>
        <mxCell id="jGIxOcGe_lyUybQSf8QV-24" value="CSR_WD" style="text;html=1;align=left;verticalAlign=middle;whiteSpace=wrap;rounded=0;container=0;" parent="vC3kN3sA0wpL92mDHwyi-25" vertex="1">
          <mxGeometry y="150" width="60" height="20" as="geometry" />
        </mxCell>
        <mxCell id="7fQUANpCW0_2PBthWF22-1" value="CSR_RD" style="text;html=1;align=right;verticalAlign=middle;whiteSpace=wrap;rounded=0;container=0;" parent="vC3kN3sA0wpL92mDHwyi-25" vertex="1">
          <mxGeometry x="60" y="30" width="60" height="20" as="geometry" />
        </mxCell>
        <mxCell id="QWSBbdvPpNymhQ5q6x3e-5" value="CSRop" style="text;html=1;align=left;verticalAlign=middle;whiteSpace=wrap;rounded=0;container=0;" parent="vC3kN3sA0wpL92mDHwyi-25" vertex="1">
          <mxGeometry y="30" width="50" height="20" as="geometry" />
        </mxCell>
        <mxCell id="QWSBbdvPpNymhQ5q6x3e-10" value="" style="triangle;whiteSpace=wrap;html=1;rotation=90;container=0;" parent="vC3kN3sA0wpL92mDHwyi-25" vertex="1">
          <mxGeometry x="15" y="15" width="10" height="20" as="geometry" />
        </mxCell>
        <mxCell id="vC3kN3sA0wpL92mDHwyi-41" value="CSR_Read" style="text;html=1;align=left;verticalAlign=middle;whiteSpace=wrap;rounded=0;container=0;" parent="vC3kN3sA0wpL92mDHwyi-25" vertex="1">
          <mxGeometry y="50" width="70" height="20" as="geometry" />
        </mxCell>
        <mxCell id="vC3kN3sA0wpL92mDHwyi-42" value="CSR_Write" style="text;html=1;align=left;verticalAlign=middle;whiteSpace=wrap;rounded=0;container=0;" parent="vC3kN3sA0wpL92mDHwyi-25" vertex="1">
          <mxGeometry y="70" width="70" height="20" as="geometry" />
        </mxCell>
        <mxCell id="wTCf3CvT70fc92s2WAtQ-15" style="edgeStyle=orthogonalEdgeStyle;rounded=0;orthogonalLoop=1;jettySize=auto;html=1;entryX=0;entryY=0.5;entryDx=0;entryDy=0;jumpStyle=arc;jumpSize=6;" parent="1" source="wTCf3CvT70fc92s2WAtQ-10" target="jQQxH6LwXFBK_Qau7PEY-26" edge="1">
          <mxGeometry relative="1" as="geometry">
            <Array as="points">
              <mxPoint x="320" y="380" />
              <mxPoint x="320" y="410" />
              <mxPoint x="150" y="410" />
              <mxPoint x="150" y="360" />
            </Array>
          </mxGeometry>
        </mxCell>
        <mxCell id="s6hKSkpy---ewfnxM8lV-23" style="edgeStyle=orthogonalEdgeStyle;rounded=0;orthogonalLoop=1;jettySize=auto;html=1;entryX=0;entryY=0.5;entryDx=0;entryDy=0;jumpStyle=arc;jumpSize=6;exitX=1;exitY=0.5;exitDx=0;exitDy=0;" parent="1" source="F4LApp7SRapzV72RJLrX-85" target="jQQxH6LwXFBK_Qau7PEY-27" edge="1">
          <mxGeometry relative="1" as="geometry">
            <Array as="points">
              <mxPoint x="1490" y="700" />
              <mxPoint x="1490" y="420" />
              <mxPoint x="140" y="420" />
              <mxPoint x="140" y="340" />
            </Array>
            <mxPoint x="171.01999999999998" y="350" as="targetPoint" />
          </mxGeometry>
        </mxCell>
        <mxCell id="JPoRV0-0kWKYk73e9sCu-16" value="to PCC" style="edgeLabel;html=1;align=center;verticalAlign=middle;resizable=0;points=[];" parent="s6hKSkpy---ewfnxM8lV-23" vertex="1" connectable="0">
          <mxGeometry relative="1" as="geometry">
            <mxPoint x="615" y="259" as="offset" />
          </mxGeometry>
        </mxCell>
        <mxCell id="3a17f1ce550125da-8" value="Program&lt;div&gt;Counter&lt;/div&gt;" style="whiteSpace=wrap;html=1;shadow=1;fontSize=18;fillColor=#f5f5f5;strokeColor=#666666;" parent="1" vertex="1">
          <mxGeometry x="40" y="540" width="80" height="150" as="geometry" />
        </mxCell>
        <mxCell id="0RyyWnerKbfPe0gcl8zv-7" value="NextPC" style="text;html=1;align=left;verticalAlign=middle;whiteSpace=wrap;rounded=0;" parent="1" vertex="1">
          <mxGeometry x="40" y="570" width="50" height="20" as="geometry" />
        </mxCell>
        <mxCell id="0RyyWnerKbfPe0gcl8zv-8" value="PC" style="text;html=1;align=right;verticalAlign=middle;whiteSpace=wrap;rounded=0;" parent="1" vertex="1">
          <mxGeometry x="100" y="570" width="20" height="20" as="geometry" />
        </mxCell>
        <mxCell id="0RyyWnerKbfPe0gcl8zv-13" value="" style="edgeStyle=elbowEdgeStyle;rounded=0;html=1;startArrow=none;startFill=0;jettySize=auto;orthogonalLoop=1;fontSize=18;elbow=vertical;entryX=0.75;entryY=0;entryDx=0;entryDy=0;" parent="1" edge="1">
          <mxGeometry relative="1" as="geometry">
            <mxPoint x="80" y="520" as="sourcePoint" />
            <mxPoint x="79.92000000000006" y="540" as="targetPoint" />
          </mxGeometry>
        </mxCell>
        <mxCell id="zFS1pn2A8cmfrVWvFFyQ-26" value="RST" style="text;html=1;align=center;verticalAlign=middle;resizable=1;points=[];autosize=1;strokeColor=none;fillColor=none;movable=1;rotatable=1;deletable=1;editable=1;locked=0;connectable=1;" parent="1" vertex="1">
          <mxGeometry x="80" y="520" width="30" height="20" as="geometry" />
        </mxCell>
        <mxCell id="vC3kN3sA0wpL92mDHwyi-27" value="CLK" style="text;html=1;align=center;verticalAlign=middle;resizable=1;points=[];autosize=1;strokeColor=none;fillColor=none;movable=1;rotatable=1;deletable=1;editable=1;locked=0;connectable=1;" parent="1" vertex="1">
          <mxGeometry x="45" y="510" width="30" height="10" as="geometry" />
        </mxCell>
        <mxCell id="o8jE4zu5w3KYZrWDI-N--17" style="edgeStyle=orthogonalEdgeStyle;rounded=0;orthogonalLoop=1;jettySize=auto;html=1;entryX=0;entryY=0.5;entryDx=0;entryDy=0;exitX=1;exitY=0.5;exitDx=0;exitDy=0;jumpStyle=arc;" parent="1" source="0RyyWnerKbfPe0gcl8zv-4" target="o8jE4zu5w3KYZrWDI-N--14" edge="1">
          <mxGeometry relative="1" as="geometry">
            <Array as="points">
              <mxPoint x="280" y="530" />
              <mxPoint x="280" y="530" />
            </Array>
          </mxGeometry>
        </mxCell>
        <mxCell id="vC3kN3sA0wpL92mDHwyi-33" value="" style="edgeStyle=orthogonalEdgeStyle;rounded=0;orthogonalLoop=1;jettySize=auto;html=1;entryX=1;entryY=0.5;entryDx=0;entryDy=0;" parent="1" source="vC3kN3sA0wpL92mDHwyi-30" target="VjuZ78g7bgVoYlYuGaa_-2" edge="1">
          <mxGeometry relative="1" as="geometry" />
        </mxCell>
        <mxCell id="vC3kN3sA0wpL92mDHwyi-30" value="Debugger" style="whiteSpace=wrap;html=1;shadow=1;fontSize=18;fillColor=#f5f5f5;strokeColor=#666666;container=0;" parent="1" vertex="1">
          <mxGeometry x="580" y="930" width="80" height="40" as="geometry" />
        </mxCell>
        <mxCell id="vC3kN3sA0wpL92mDHwyi-32" value="" style="group" parent="1" vertex="1" connectable="0">
          <mxGeometry x="450" y="910" width="100" height="80" as="geometry" />
        </mxCell>
        <mxCell id="VjuZ78g7bgVoYlYuGaa_-2" value="Debug&lt;div&gt;Interface&lt;/div&gt;" style="whiteSpace=wrap;html=1;shadow=1;fontSize=18;fillColor=#f5f5f5;strokeColor=#666666;container=0;" parent="vC3kN3sA0wpL92mDHwyi-32" vertex="1">
          <mxGeometry width="100" height="80" as="geometry" />
        </mxCell>
        <mxCell id="VjuZ78g7bgVoYlYuGaa_-8" value="Dbg_Instr." style="text;html=1;align=right;verticalAlign=middle;whiteSpace=wrap;rounded=0;container=0;" parent="vC3kN3sA0wpL92mDHwyi-32" vertex="1">
          <mxGeometry width="60" height="20" as="geometry" />
        </mxCell>
        <mxCell id="vC3kN3sA0wpL92mDHwyi-40" style="edgeStyle=orthogonalEdgeStyle;rounded=0;orthogonalLoop=1;jettySize=auto;html=1;entryX=0;entryY=0.5;entryDx=0;entryDy=0;jumpStyle=arc;exitX=1;exitY=0.5;exitDx=0;exitDy=0;" parent="1" source="vC3kN3sA0wpL92mDHwyi-37" target="vC3kN3sA0wpL92mDHwyi-41" edge="1">
          <mxGeometry relative="1" as="geometry">
            <mxPoint x="860" y="780" as="targetPoint" />
            <Array as="points">
              <mxPoint x="850" y="245" />
              <mxPoint x="850" y="730" />
              <mxPoint x="830" y="730" />
              <mxPoint x="830" y="790" />
            </Array>
          </mxGeometry>
        </mxCell>
        <mxCell id="q9rqpO51LhmBKndgSOn--23" style="edgeStyle=orthogonalEdgeStyle;rounded=0;orthogonalLoop=1;jettySize=auto;html=1;entryX=0;entryY=0.5;entryDx=0;entryDy=0;exitX=1;exitY=0.5;exitDx=0;exitDy=0;jumpStyle=arc;" parent="1" source="-hvyRLRQOOJ3VwnVLbOB-9" target="JqTOLJbfiFGYhZ1s0W8t-10" edge="1">
          <mxGeometry relative="1" as="geometry">
            <Array as="points">
              <mxPoint x="780" y="580" />
              <mxPoint x="780" y="650" />
            </Array>
          </mxGeometry>
        </mxCell>
        <mxCell id="YIYq9nX8O7GQGufym3ho-16" style="edgeStyle=orthogonalEdgeStyle;rounded=0;orthogonalLoop=1;jettySize=auto;html=1;entryX=0;entryY=0.5;entryDx=0;entryDy=0;exitX=1;exitY=0.5;exitDx=0;exitDy=0;jumpStyle=arc;" parent="1" source="-hvyRLRQOOJ3VwnVLbOB-48" target="zFS1pn2A8cmfrVWvFFyQ-1" edge="1">
          <mxGeometry relative="1" as="geometry">
            <Array as="points">
              <mxPoint x="810" y="390" />
              <mxPoint x="810" y="590" />
            </Array>
          </mxGeometry>
        </mxCell>
        <mxCell id="q9rqpO51LhmBKndgSOn--22" style="edgeStyle=orthogonalEdgeStyle;rounded=0;orthogonalLoop=1;jettySize=auto;html=1;entryX=0;entryY=0.5;entryDx=0;entryDy=0;exitX=1;exitY=0.5;exitDx=0;exitDy=0;jumpStyle=arc;" parent="1" source="-hvyRLRQOOJ3VwnVLbOB-8" target="JqTOLJbfiFGYhZ1s0W8t-8" edge="1">
          <mxGeometry relative="1" as="geometry">
            <Array as="points">
              <mxPoint x="790" y="560" />
              <mxPoint x="790" y="630" />
            </Array>
          </mxGeometry>
        </mxCell>
        <mxCell id="zFS1pn2A8cmfrVWvFFyQ-38" style="edgeStyle=orthogonalEdgeStyle;rounded=0;orthogonalLoop=1;jettySize=auto;html=1;entryX=0;entryY=0.5;entryDx=0;entryDy=0;exitX=1;exitY=0.5;exitDx=0;exitDy=0;jumpStyle=arc;" parent="1" source="-hvyRLRQOOJ3VwnVLbOB-7" target="JqTOLJbfiFGYhZ1s0W8t-5" edge="1">
          <mxGeometry relative="1" as="geometry">
            <Array as="points">
              <mxPoint x="800" y="540" />
              <mxPoint x="800" y="610" />
            </Array>
          </mxGeometry>
        </mxCell>
        <mxCell id="zFS1pn2A8cmfrVWvFFyQ-17" style="edgeStyle=orthogonalEdgeStyle;rounded=0;orthogonalLoop=1;jettySize=auto;html=1;entryX=0;entryY=0.5;entryDx=0;entryDy=0;jumpStyle=arc;flowAnimation=0;shadow=0;exitX=0.5;exitY=0;exitDx=0;exitDy=0;" parent="1" source="-hvyRLRQOOJ3VwnVLbOB-43" target="JqTOLJbfiFGYhZ1s0W8t-13" edge="1">
          <mxGeometry relative="1" as="geometry">
            <Array as="points">
              <mxPoint x="1680" y="880" />
              <mxPoint x="1680" y="1050" />
              <mxPoint x="960" y="1050" />
              <mxPoint x="960" y="980" />
              <mxPoint x="810" y="980" />
              <mxPoint x="810" y="710" />
            </Array>
          </mxGeometry>
        </mxCell>
        <mxCell id="IpAbVSy56P0OoJBHXVlp-7" style="edgeStyle=orthogonalEdgeStyle;rounded=0;orthogonalLoop=1;jettySize=auto;html=1;entryX=0;entryY=0.5;entryDx=0;entryDy=0;jumpStyle=arc;" parent="1" source="_H_bEt4n4NwgmmSnS2Ty-9" target="_H_bEt4n4NwgmmSnS2Ty-4" edge="1">
          <mxGeometry relative="1" as="geometry">
            <Array as="points">
              <mxPoint x="1340" y="850" />
              <mxPoint x="1110" y="850" />
              <mxPoint x="1110" y="940" />
            </Array>
          </mxGeometry>
        </mxCell>
        <mxCell id="YIYq9nX8O7GQGufym3ho-6" style="edgeStyle=orthogonalEdgeStyle;rounded=0;orthogonalLoop=1;jettySize=auto;html=1;entryX=0;entryY=0.5;entryDx=0;entryDy=0;jumpStyle=arc;" parent="1" source="7fQUANpCW0_2PBthWF22-45" target="F4LApp7SRapzV72RJLrX-89" edge="1">
          <mxGeometry relative="1" as="geometry">
            <Array as="points">
              <mxPoint x="1010" y="860" />
              <mxPoint x="1320" y="860" />
              <mxPoint x="1320" y="900" />
            </Array>
          </mxGeometry>
        </mxCell>
        <mxCell id="fCNnA6YKo8tVsQt9WhIM-10" style="edgeStyle=orthogonalEdgeStyle;rounded=0;orthogonalLoop=1;jettySize=auto;html=1;entryX=0;entryY=0.5;entryDx=0;entryDy=0;jumpStyle=arc;exitX=1;exitY=0.5;exitDx=0;exitDy=0;" parent="1" source="fCNnA6YKo8tVsQt9WhIM-9" target="fCNnA6YKo8tVsQt9WhIM-8" edge="1">
          <mxGeometry relative="1" as="geometry">
            <Array as="points">
              <mxPoint x="1040" y="375" />
              <mxPoint x="1040" y="880" />
            </Array>
          </mxGeometry>
        </mxCell>
        <mxCell id="zFS1pn2A8cmfrVWvFFyQ-45" style="edgeStyle=orthogonalEdgeStyle;rounded=0;orthogonalLoop=1;jettySize=auto;html=1;entryX=0;entryY=0.5;entryDx=0;entryDy=0;jumpStyle=arc;" parent="1" source="JqTOLJbfiFGYhZ1s0W8t-16" target="64JDVrVSjXghW2DnclTE-12" edge="1">
          <mxGeometry relative="1" as="geometry">
            <Array as="points">
              <mxPoint x="980" y="600" />
              <mxPoint x="1250" y="600" />
              <mxPoint x="1250" y="580" />
            </Array>
            <mxPoint x="1310.0350000000003" y="585.3444499999999" as="targetPoint" />
          </mxGeometry>
        </mxCell>
        <mxCell id="BtpwSkirMHUlfhhFMKDF-21" style="edgeStyle=orthogonalEdgeStyle;rounded=0;orthogonalLoop=1;jettySize=auto;html=1;entryX=0;entryY=0.5;entryDx=0;entryDy=0;jumpStyle=arc;exitX=1;exitY=0.5;exitDx=0;exitDy=0;" parent="1" source="F4LApp7SRapzV72RJLrX-73" target="BtpwSkirMHUlfhhFMKDF-3" edge="1">
          <mxGeometry relative="1" as="geometry">
            <Array as="points">
              <mxPoint x="1190" y="350" />
              <mxPoint x="1190" y="30" />
            </Array>
          </mxGeometry>
        </mxCell>
        <mxCell id="BtpwSkirMHUlfhhFMKDF-20" style="edgeStyle=orthogonalEdgeStyle;rounded=0;orthogonalLoop=1;jettySize=auto;html=1;jumpStyle=arc;exitX=1;exitY=0.5;exitDx=0;exitDy=0;entryX=0;entryY=0.5;entryDx=0;entryDy=0;" parent="1" source="F4LApp7SRapzV72RJLrX-56" target="BtpwSkirMHUlfhhFMKDF-4" edge="1">
          <mxGeometry relative="1" as="geometry">
            <mxPoint x="1570.0200000000002" y="60" as="targetPoint" />
            <Array as="points">
              <mxPoint x="1200" y="330" />
              <mxPoint x="1200" y="50" />
            </Array>
            <mxPoint x="800.0799999999999" y="310" as="sourcePoint" />
          </mxGeometry>
        </mxCell>
        <mxCell id="q9rqpO51LhmBKndgSOn--12" style="edgeStyle=orthogonalEdgeStyle;rounded=0;orthogonalLoop=1;jettySize=auto;html=1;entryX=0;entryY=0.5;entryDx=0;entryDy=0;jumpStyle=arc;exitX=1;exitY=0.5;exitDx=0;exitDy=0;" parent="1" source="q9rqpO51LhmBKndgSOn--2" target="q9rqpO51LhmBKndgSOn--5" edge="1">
          <mxGeometry relative="1" as="geometry">
            <Array as="points">
              <mxPoint x="1330" y="190" />
            </Array>
          </mxGeometry>
        </mxCell>
        <mxCell id="laC3dYbV331lfGwgBf-x-34" style="edgeStyle=orthogonalEdgeStyle;rounded=0;orthogonalLoop=1;jettySize=auto;html=1;entryX=0;entryY=0.5;entryDx=0;entryDy=0;exitX=1;exitY=0.5;exitDx=0;exitDy=0;jumpStyle=arc;" parent="1" source="laC3dYbV331lfGwgBf-x-33" target="7fQUANpCW0_2PBthWF22-18" edge="1">
          <mxGeometry relative="1" as="geometry">
            <mxPoint x="800.02" y="246.25101214574903" as="sourcePoint" />
            <mxPoint x="1280.0800000000002" y="676.99" as="targetPoint" />
            <Array as="points">
              <mxPoint x="1350" y="200" />
            </Array>
          </mxGeometry>
        </mxCell>
        <mxCell id="zFS1pn2A8cmfrVWvFFyQ-16" style="edgeStyle=orthogonalEdgeStyle;rounded=0;orthogonalLoop=1;jettySize=auto;html=1;entryX=0.082;entryY=0.4;entryDx=0;entryDy=0;entryPerimeter=0;exitX=1;exitY=0.5;exitDx=0;exitDy=0;jumpStyle=arc;" parent="1" source="laC3dYbV331lfGwgBf-x-37" target="-hvyRLRQOOJ3VwnVLbOB-43" edge="1">
          <mxGeometry relative="1" as="geometry">
            <mxPoint x="1620.0200000000002" y="830" as="targetPoint" />
            <Array as="points">
              <mxPoint x="1620" y="310" />
            </Array>
          </mxGeometry>
        </mxCell>
        <mxCell id="vC3kN3sA0wpL92mDHwyi-44" value="" style="group" parent="1" vertex="1" connectable="0">
          <mxGeometry x="1390" y="140" width="100" height="160" as="geometry" />
        </mxCell>
        <mxCell id="laC3dYbV331lfGwgBf-x-27" value="Branch&lt;div&gt;Logic&lt;/div&gt;" style="whiteSpace=wrap;html=1;shadow=1;fontSize=18;fillColor=#f5f5f5;strokeColor=#666666;" parent="vC3kN3sA0wpL92mDHwyi-44" vertex="1">
          <mxGeometry width="100" height="160" as="geometry" />
        </mxCell>
        <mxCell id="laC3dYbV331lfGwgBf-x-28" value="ALUzero" style="text;html=1;align=left;verticalAlign=middle;whiteSpace=wrap;rounded=0;" parent="vC3kN3sA0wpL92mDHwyi-44" vertex="1">
          <mxGeometry y="140" width="50" height="20" as="geometry" />
        </mxCell>
        <mxCell id="laC3dYbV331lfGwgBf-x-42" value="Branch" style="text;html=1;align=left;verticalAlign=middle;whiteSpace=wrap;rounded=0;" parent="vC3kN3sA0wpL92mDHwyi-44" vertex="1">
          <mxGeometry width="40" height="20" as="geometry" />
        </mxCell>
        <mxCell id="s6hKSkpy---ewfnxM8lV-11" value="BTaken" style="text;html=1;align=right;verticalAlign=middle;whiteSpace=wrap;rounded=0;" parent="vC3kN3sA0wpL92mDHwyi-44" vertex="1">
          <mxGeometry x="60" width="40" height="20" as="geometry" />
        </mxCell>
        <mxCell id="q9rqpO51LhmBKndgSOn--34" value="funct3" style="text;html=1;align=left;verticalAlign=middle;whiteSpace=wrap;rounded=0;" parent="vC3kN3sA0wpL92mDHwyi-44" vertex="1">
          <mxGeometry y="120" width="40" height="20" as="geometry" />
        </mxCell>
        <mxCell id="vC3kN3sA0wpL92mDHwyi-45" value="" style="group" parent="1" vertex="1" connectable="0">
          <mxGeometry x="1570" y="20" width="110" height="200" as="geometry" />
        </mxCell>
        <mxCell id="BtpwSkirMHUlfhhFMKDF-2" value="BE_Logic&lt;div&gt;&lt;br&gt;&lt;/div&gt;" style="whiteSpace=wrap;html=1;shadow=1;fontSize=18;fillColor=#f5f5f5;strokeColor=#666666;container=0;" parent="vC3kN3sA0wpL92mDHwyi-45" vertex="1">
          <mxGeometry width="110" height="200" as="geometry" />
        </mxCell>
        <mxCell id="BtpwSkirMHUlfhhFMKDF-3" value="MemWrite" style="text;html=1;align=left;verticalAlign=middle;whiteSpace=wrap;rounded=0;container=0;" parent="vC3kN3sA0wpL92mDHwyi-45" vertex="1">
          <mxGeometry width="60" height="20" as="geometry" />
        </mxCell>
        <mxCell id="BtpwSkirMHUlfhhFMKDF-4" value="MemRead" style="text;html=1;align=left;verticalAlign=middle;whiteSpace=wrap;rounded=0;container=0;" parent="vC3kN3sA0wpL92mDHwyi-45" vertex="1">
          <mxGeometry y="20" width="60" height="20" as="geometry" />
        </mxCell>
        <mxCell id="BtpwSkirMHUlfhhFMKDF-5" value="BERF_WD" style="text;html=1;align=right;verticalAlign=middle;whiteSpace=wrap;rounded=0;container=0;" parent="vC3kN3sA0wpL92mDHwyi-45" vertex="1">
          <mxGeometry x="50" y="40" width="60" height="20" as="geometry" />
        </mxCell>
        <mxCell id="BtpwSkirMHUlfhhFMKDF-6" value="funct3" style="text;html=1;align=left;verticalAlign=middle;whiteSpace=wrap;rounded=0;container=0;" parent="vC3kN3sA0wpL92mDHwyi-45" vertex="1">
          <mxGeometry y="150" width="40" height="20" as="geometry" />
        </mxCell>
        <mxCell id="BtpwSkirMHUlfhhFMKDF-7" value="DM2RF_RD" style="text;html=1;align=left;verticalAlign=middle;whiteSpace=wrap;rounded=0;container=0;" parent="vC3kN3sA0wpL92mDHwyi-45" vertex="1">
          <mxGeometry y="120" width="80" height="20" as="geometry" />
        </mxCell>
        <mxCell id="BtpwSkirMHUlfhhFMKDF-8" value="RF2DM_RD" style="text;html=1;align=left;verticalAlign=middle;whiteSpace=wrap;rounded=0;container=0;" parent="vC3kN3sA0wpL92mDHwyi-45" vertex="1">
          <mxGeometry y="100" width="70" height="20" as="geometry" />
        </mxCell>
        <mxCell id="BtpwSkirMHUlfhhFMKDF-9" value="address" style="text;html=1;align=left;verticalAlign=middle;whiteSpace=wrap;rounded=0;container=0;" parent="vC3kN3sA0wpL92mDHwyi-45" vertex="1">
          <mxGeometry y="170" width="60" height="20" as="geometry" />
        </mxCell>
        <mxCell id="BtpwSkirMHUlfhhFMKDF-10" value="BEDM_WD" style="text;html=1;align=right;verticalAlign=middle;whiteSpace=wrap;rounded=0;container=0;" parent="vC3kN3sA0wpL92mDHwyi-45" vertex="1">
          <mxGeometry x="40" y="60" width="70" height="20" as="geometry" />
        </mxCell>
        <mxCell id="BtpwSkirMHUlfhhFMKDF-11" value="WriteMask" style="text;html=1;align=right;verticalAlign=middle;whiteSpace=wrap;rounded=0;container=0;" parent="vC3kN3sA0wpL92mDHwyi-45" vertex="1">
          <mxGeometry x="50" y="150" width="60" height="20" as="geometry" />
        </mxCell>
        <mxCell id="QJXn4PjGb355hVGx2Jd_-17" style="edgeStyle=orthogonalEdgeStyle;rounded=0;orthogonalLoop=1;jettySize=auto;html=1;entryX=0;entryY=0.5;entryDx=0;entryDy=0;jumpStyle=arc;" parent="1" source="F4LApp7SRapzV72RJLrX-85" target="QJXn4PjGb355hVGx2Jd_-15" edge="1">
          <mxGeometry relative="1" as="geometry">
            <Array as="points">
              <mxPoint x="1440" y="1040" />
              <mxPoint x="680" y="1040" />
              <mxPoint x="680" y="910" />
            </Array>
          </mxGeometry>
        </mxCell>
        <mxCell id="YIYq9nX8O7GQGufym3ho-1" value="to CSR" style="edgeLabel;html=1;align=center;verticalAlign=middle;resizable=0;points=[];" parent="QJXn4PjGb355hVGx2Jd_-17" vertex="1" connectable="0">
          <mxGeometry relative="1" as="geometry">
            <mxPoint x="290" y="-280" as="offset" />
          </mxGeometry>
        </mxCell>
        <mxCell id="s6hKSkpy---ewfnxM8lV-34" style="edgeStyle=orthogonalEdgeStyle;rounded=0;orthogonalLoop=1;jettySize=auto;html=1;entryX=0;entryY=0.5;entryDx=0;entryDy=0;exitX=1;exitY=0.5;exitDx=0;exitDy=0;jumpStyle=arc;jumpSize=6;" parent="1" source="s6hKSkpy---ewfnxM8lV-31" target="7fQUANpCW0_2PBthWF22-2" edge="1">
          <mxGeometry relative="1" as="geometry">
            <Array as="points">
              <mxPoint x="280" y="960" />
              <mxPoint x="280" y="1030" />
              <mxPoint x="1540" y="1030" />
              <mxPoint x="1540" y="930" />
            </Array>
          </mxGeometry>
        </mxCell>
        <mxCell id="hefrhl2iVMpB-7Aj1aw6-49" style="edgeStyle=orthogonalEdgeStyle;rounded=0;orthogonalLoop=1;jettySize=auto;html=1;entryX=0;entryY=0.5;entryDx=0;entryDy=0;jumpStyle=arc;" parent="1" source="QJXn4PjGb355hVGx2Jd_-26" target="hefrhl2iVMpB-7Aj1aw6-48" edge="1">
          <mxGeometry relative="1" as="geometry">
            <Array as="points">
              <mxPoint x="1010" y="1010" />
              <mxPoint x="410" y="1010" />
              <mxPoint x="410" y="870" />
            </Array>
            <mxPoint x="960.0799999999998" y="819.6000000000001" as="sourcePoint" />
          </mxGeometry>
        </mxCell>
        <mxCell id="q9rqpO51LhmBKndgSOn--5" value="" style="shape=trapezoid;perimeter=trapezoidPerimeter;whiteSpace=wrap;html=1;fixedSize=1;shadow=1;strokeColor=#666666;align=center;verticalAlign=middle;fontFamily=Helvetica;fontSize=18;fontColor=default;fillColor=#f5f5f5;rotation=90;" parent="1" vertex="1">
          <mxGeometry x="1293.7200000000003" y="589.665" width="73.33" height="20" as="geometry" />
        </mxCell>
        <mxCell id="7fQUANpCW0_2PBthWF22-14" value="&lt;font style=&quot;font-size: 9px;&quot;&gt;01&lt;/font&gt;" style="text;html=1;align=left;verticalAlign=middle;whiteSpace=wrap;rounded=0;" parent="1" vertex="1">
          <mxGeometry x="1320.38" y="594.995" width="20" height="10" as="geometry" />
        </mxCell>
        <mxCell id="64JDVrVSjXghW2DnclTE-10" value="&lt;font style=&quot;font-size: 9px;&quot;&gt;10&lt;/font&gt;" style="text;html=1;align=left;verticalAlign=middle;whiteSpace=wrap;rounded=0;" parent="1" vertex="1">
          <mxGeometry x="1320.38" y="609.6649999999998" width="20" height="20" as="geometry" />
        </mxCell>
        <mxCell id="64JDVrVSjXghW2DnclTE-12" value="&lt;font style=&quot;font-size: 9px;&quot;&gt;00&lt;/font&gt;" style="text;html=1;align=left;verticalAlign=middle;whiteSpace=wrap;rounded=0;" parent="1" vertex="1">
          <mxGeometry x="1320.38" y="570.0049999999999" width="20" height="20" as="geometry" />
        </mxCell>
        <mxCell id="7fQUANpCW0_2PBthWF22-18" value="" style="shape=trapezoid;perimeter=trapezoidPerimeter;whiteSpace=wrap;html=1;fixedSize=1;shadow=1;strokeColor=#666666;align=center;verticalAlign=middle;fontFamily=Helvetica;fontSize=18;fontColor=default;fillColor=#f5f5f5;rotation=90;container=0;" parent="1" vertex="1">
          <mxGeometry x="1313.3750000000002" y="669.3349999999999" width="73.34" height="20" as="geometry" />
        </mxCell>
        <mxCell id="7fQUANpCW0_2PBthWF22-20" value="&lt;font style=&quot;font-size: 9px;&quot;&gt;01&lt;/font&gt;" style="text;html=1;align=left;verticalAlign=middle;whiteSpace=wrap;rounded=0;container=0;" parent="1" vertex="1">
          <mxGeometry x="1340.0500000000002" y="665" width="20" height="30" as="geometry" />
        </mxCell>
        <mxCell id="7fQUANpCW0_2PBthWF22-19" value="&lt;font style=&quot;font-size: 9px;&quot;&gt;00&lt;/font&gt;" style="text;html=1;align=left;verticalAlign=middle;whiteSpace=wrap;rounded=0;container=0;" parent="1" vertex="1">
          <mxGeometry x="1340.0450000000003" y="650.005" width="20" height="20" as="geometry" />
        </mxCell>
        <mxCell id="7fQUANpCW0_2PBthWF22-21" value="&lt;font style=&quot;font-size: 9px;&quot;&gt;10&lt;/font&gt;" style="text;html=1;align=left;verticalAlign=middle;whiteSpace=wrap;rounded=0;container=0;" parent="1" vertex="1">
          <mxGeometry x="1340.0450000000003" y="689.3349999999998" width="20" height="20" as="geometry" />
        </mxCell>
        <mxCell id="_H_bEt4n4NwgmmSnS2Ty-18" value="" style="shape=trapezoid;perimeter=trapezoidPerimeter;whiteSpace=wrap;html=1;fixedSize=1;shadow=1;strokeColor=#666666;align=center;verticalAlign=middle;fontFamily=Helvetica;fontSize=18;fontColor=default;fillColor=#f5f5f5;rotation=90;container=0;" parent="1" vertex="1">
          <mxGeometry x="1347.17583104224" y="800.1705249737514" width="66.65333666583318" height="20.99895005249739" as="geometry" />
        </mxCell>
        <mxCell id="_H_bEt4n4NwgmmSnS2Ty-19" value="01" style="text;html=1;align=left;verticalAlign=middle;whiteSpace=wrap;rounded=0;container=0;" parent="1" vertex="1">
          <mxGeometry x="1370.5000000000002" y="790.6700000000001" width="20" height="20" as="geometry" />
        </mxCell>
        <mxCell id="_H_bEt4n4NwgmmSnS2Ty-20" value="00" style="text;html=1;align=left;verticalAlign=middle;whiteSpace=wrap;rounded=0;container=0;" parent="1" vertex="1">
          <mxGeometry x="1370.5000000000002" y="810.6700000000001" width="20" height="20" as="geometry" />
        </mxCell>
        <mxCell id="QJXn4PjGb355hVGx2Jd_-12" value="" style="shape=trapezoid;perimeter=trapezoidPerimeter;whiteSpace=wrap;html=1;fixedSize=1;shadow=1;strokeColor=#666666;align=center;verticalAlign=middle;fontFamily=Helvetica;fontSize=18;fontColor=default;fillColor=#f5f5f5;rotation=90;" parent="1" vertex="1">
          <mxGeometry x="672.9999999999999" y="880.33" width="73.02" height="20" as="geometry" />
        </mxCell>
        <mxCell id="QJXn4PjGb355hVGx2Jd_-13" value="&lt;font style=&quot;font-size: 9px;&quot;&gt;10&lt;/font&gt;" style="text;html=1;align=left;verticalAlign=middle;whiteSpace=wrap;rounded=0;" parent="1" vertex="1">
          <mxGeometry x="700" y="860" width="20" height="20" as="geometry" />
        </mxCell>
        <mxCell id="QJXn4PjGb355hVGx2Jd_-14" value="&lt;font style=&quot;font-size: 9px;&quot;&gt;01&lt;/font&gt;" style="text;html=1;align=left;verticalAlign=middle;whiteSpace=wrap;rounded=0;" parent="1" vertex="1">
          <mxGeometry x="700" y="880" width="20" height="20" as="geometry" />
        </mxCell>
        <mxCell id="QJXn4PjGb355hVGx2Jd_-15" value="&lt;font style=&quot;font-size: 9px;&quot;&gt;00&lt;/font&gt;" style="text;html=1;align=left;verticalAlign=middle;whiteSpace=wrap;rounded=0;" parent="1" vertex="1">
          <mxGeometry x="700" y="900" width="20" height="20" as="geometry" />
        </mxCell>
        <mxCell id="QJXn4PjGb355hVGx2Jd_-2" value="" style="shape=trapezoid;perimeter=trapezoidPerimeter;whiteSpace=wrap;html=1;fixedSize=1;shadow=1;strokeColor=#666666;align=center;verticalAlign=middle;fontFamily=Helvetica;fontSize=18;fontColor=default;fillColor=#f5f5f5;rotation=90;container=0;" parent="1" vertex="1">
          <mxGeometry x="720.0030243489075" y="820" width="60" height="20" as="geometry" />
        </mxCell>
        <mxCell id="QJXn4PjGb355hVGx2Jd_-3" value="00" style="text;html=1;align=left;verticalAlign=middle;whiteSpace=wrap;rounded=0;container=0;" parent="1" vertex="1">
          <mxGeometry x="740" y="810.4966683329166" width="20" height="20" as="geometry" />
        </mxCell>
        <mxCell id="QJXn4PjGb355hVGx2Jd_-4" value="01" style="text;html=1;align=left;verticalAlign=middle;whiteSpace=wrap;rounded=0;container=0;" parent="1" vertex="1">
          <mxGeometry x="740" y="830.4966683329166" width="20" height="20" as="geometry" />
        </mxCell>
        <mxCell id="64JDVrVSjXghW2DnclTE-28" value="" style="shape=trapezoid;perimeter=trapezoidPerimeter;whiteSpace=wrap;html=1;fixedSize=1;shadow=1;strokeColor=#666666;align=center;verticalAlign=middle;fontFamily=Helvetica;fontSize=18;fontColor=default;fillColor=#f5f5f5;rotation=90;container=0;" parent="1" vertex="1">
          <mxGeometry x="357.17583104223974" y="539.5005249737513" width="66.65333666583318" height="20.99895005249739" as="geometry" />
        </mxCell>
        <mxCell id="64JDVrVSjXghW2DnclTE-29" value="00" style="text;html=1;align=left;verticalAlign=middle;whiteSpace=wrap;rounded=0;container=0;" parent="1" vertex="1">
          <mxGeometry x="380.00000000000006" y="530" width="20" height="20" as="geometry" />
        </mxCell>
        <mxCell id="64JDVrVSjXghW2DnclTE-30" value="01" style="text;html=1;align=left;verticalAlign=middle;whiteSpace=wrap;rounded=0;container=0;" parent="1" vertex="1">
          <mxGeometry x="380.00000000000006" y="550" width="20" height="20" as="geometry" />
        </mxCell>
        <mxCell id="o8jE4zu5w3KYZrWDI-N--13" value="" style="shape=trapezoid;perimeter=trapezoidPerimeter;whiteSpace=wrap;html=1;fixedSize=1;shadow=1;strokeColor=#666666;align=center;verticalAlign=middle;fontFamily=Helvetica;fontSize=18;fontColor=default;fillColor=#f5f5f5;rotation=90;container=0;" parent="1" vertex="1">
          <mxGeometry x="297.17583104223974" y="529.5005249737513" width="66.65333666583318" height="20.99895005249739" as="geometry" />
        </mxCell>
        <mxCell id="o8jE4zu5w3KYZrWDI-N--14" value="00" style="text;html=1;align=left;verticalAlign=middle;whiteSpace=wrap;rounded=0;container=0;" parent="1" vertex="1">
          <mxGeometry x="320.00000000000006" y="520" width="20" height="20" as="geometry" />
        </mxCell>
        <mxCell id="o8jE4zu5w3KYZrWDI-N--15" value="01" style="text;html=1;align=left;verticalAlign=middle;whiteSpace=wrap;rounded=0;container=0;" parent="1" vertex="1">
          <mxGeometry x="320.00000000000006" y="540" width="20" height="20" as="geometry" />
        </mxCell>
        <mxCell id="0RyyWnerKbfPe0gcl8zv-11" value="" style="triangle;whiteSpace=wrap;html=1;rotation=90;" parent="1" vertex="1">
          <mxGeometry x="55" y="535" width="10" height="20" as="geometry" />
        </mxCell>
        <mxCell id="zFS1pn2A8cmfrVWvFFyQ-21" value="" style="edgeStyle=none;orthogonalLoop=1;jettySize=auto;html=1;rounded=0;" parent="1" edge="1">
          <mxGeometry width="100" relative="1" as="geometry">
            <mxPoint x="59.980000000000004" y="520" as="sourcePoint" />
            <mxPoint x="60" y="540" as="targetPoint" />
            <Array as="points" />
          </mxGeometry>
        </mxCell>
        <mxCell id="vC3kN3sA0wpL92mDHwyi-54" value="" style="group" parent="1" vertex="1" connectable="0">
          <mxGeometry x="1130" y="680" width="120" height="160" as="geometry" />
        </mxCell>
        <mxCell id="zFS1pn2A8cmfrVWvFFyQ-60" value="" style="edgeStyle=none;orthogonalLoop=1;jettySize=auto;html=1;rounded=0;" parent="vC3kN3sA0wpL92mDHwyi-54" edge="1">
          <mxGeometry width="100" relative="1" as="geometry">
            <mxPoint x="80" as="sourcePoint" />
            <mxPoint x="80" y="20" as="targetPoint" />
            <Array as="points" />
          </mxGeometry>
        </mxCell>
        <mxCell id="3a17f1ce550125da-4" value="&lt;div&gt;&lt;span style=&quot;background-color: transparent;&quot;&gt;D. Memory&lt;/span&gt;&lt;br&gt;&lt;/div&gt;&lt;div&gt;&lt;span style=&quot;background-color: transparent;&quot;&gt;&lt;br&gt;&lt;/span&gt;&lt;/div&gt;&lt;div&gt;&lt;span style=&quot;background-color: transparent;&quot;&gt;&lt;br&gt;&lt;/span&gt;&lt;/div&gt;" style="whiteSpace=wrap;html=1;shadow=1;fontSize=18;fillColor=#f5f5f5;strokeColor=#666666;container=0;" parent="vC3kN3sA0wpL92mDHwyi-54" vertex="1">
          <mxGeometry y="20" width="120" height="140" as="geometry" />
        </mxCell>
        <mxCell id="F4LApp7SRapzV72RJLrX-40" value="DM_Address" style="text;html=1;align=left;verticalAlign=middle;whiteSpace=wrap;rounded=0;container=0;" parent="vC3kN3sA0wpL92mDHwyi-54" vertex="1">
          <mxGeometry y="140" width="80" height="20" as="geometry" />
        </mxCell>
        <mxCell id="F4LApp7SRapzV72RJLrX-42" value="MemWrite" style="text;html=1;align=center;verticalAlign=middle;whiteSpace=wrap;rounded=0;container=0;" parent="vC3kN3sA0wpL92mDHwyi-54" vertex="1">
          <mxGeometry y="80" width="60" height="20" as="geometry" />
        </mxCell>
        <mxCell id="F4LApp7SRapzV72RJLrX-43" value="MemRead" style="text;html=1;align=center;verticalAlign=middle;whiteSpace=wrap;rounded=0;container=0;" parent="vC3kN3sA0wpL92mDHwyi-54" vertex="1">
          <mxGeometry y="100" width="60" height="20" as="geometry" />
        </mxCell>
        <mxCell id="F4LApp7SRapzV72RJLrX-44" value="DM_RD" style="text;html=1;align=center;verticalAlign=middle;whiteSpace=wrap;rounded=0;container=0;" parent="vC3kN3sA0wpL92mDHwyi-54" vertex="1">
          <mxGeometry x="70" y="120" width="50" height="20" as="geometry" />
        </mxCell>
        <mxCell id="BtpwSkirMHUlfhhFMKDF-25" value="ByteMask" style="text;html=1;align=left;verticalAlign=middle;whiteSpace=wrap;rounded=0;container=0;" parent="vC3kN3sA0wpL92mDHwyi-54" vertex="1">
          <mxGeometry y="120" width="70" height="20" as="geometry" />
        </mxCell>
        <mxCell id="zFS1pn2A8cmfrVWvFFyQ-59" value="" style="triangle;whiteSpace=wrap;html=1;rotation=90;container=0;" parent="vC3kN3sA0wpL92mDHwyi-54" vertex="1">
          <mxGeometry x="75" y="15" width="10" height="20" as="geometry" />
        </mxCell>
        <mxCell id="zFS1pn2A8cmfrVWvFFyQ-66" value="" style="edgeStyle=elbowEdgeStyle;rounded=0;html=1;startArrow=none;startFill=0;jettySize=auto;orthogonalLoop=1;fontSize=18;elbow=vertical;entryX=0.75;entryY=0;entryDx=0;entryDy=0;" parent="vC3kN3sA0wpL92mDHwyi-54" edge="1">
          <mxGeometry relative="1" as="geometry">
            <Array as="points" />
            <mxPoint x="100" as="sourcePoint" />
            <mxPoint x="99.95000000000005" y="20" as="targetPoint" />
          </mxGeometry>
        </mxCell>
        <mxCell id="IpAbVSy56P0OoJBHXVlp-8" value="B2M_Addr" style="text;html=1;align=right;verticalAlign=middle;whiteSpace=wrap;rounded=0;container=0;" parent="vC3kN3sA0wpL92mDHwyi-54" vertex="1">
          <mxGeometry y="20" width="60" height="20" as="geometry" />
        </mxCell>
        <mxCell id="IpAbVSy56P0OoJBHXVlp-9" value="B2M_Data" style="text;html=1;align=right;verticalAlign=middle;whiteSpace=wrap;rounded=0;container=0;" parent="vC3kN3sA0wpL92mDHwyi-54" vertex="1">
          <mxGeometry y="40" width="60" height="20" as="geometry" />
        </mxCell>
        <mxCell id="IpAbVSy56P0OoJBHXVlp-16" value="RST" style="text;html=1;align=center;verticalAlign=middle;whiteSpace=wrap;rounded=0;container=0;" parent="vC3kN3sA0wpL92mDHwyi-54" vertex="1">
          <mxGeometry x="85" y="20" width="30" height="20" as="geometry" />
        </mxCell>
        <mxCell id="IpAbVSy56P0OoJBHXVlp-15" value="CLK" style="text;html=1;align=center;verticalAlign=middle;whiteSpace=wrap;rounded=0;container=0;" parent="vC3kN3sA0wpL92mDHwyi-54" vertex="1">
          <mxGeometry x="60" y="30" width="40" height="20" as="geometry" />
        </mxCell>
        <mxCell id="7fQUANpCW0_2PBthWF22-16" style="edgeStyle=orthogonalEdgeStyle;rounded=0;orthogonalLoop=1;jettySize=auto;html=1;entryX=0;entryY=0.5;entryDx=0;entryDy=0;jumpStyle=arc;exitX=1;exitY=0.5;exitDx=0;exitDy=0;" parent="1" source="7fQUANpCW0_2PBthWF22-1" target="64JDVrVSjXghW2DnclTE-10" edge="1">
          <mxGeometry relative="1" as="geometry">
            <Array as="points">
              <mxPoint x="1010" y="770" />
              <mxPoint x="1010" y="650" />
              <mxPoint x="1300" y="650" />
              <mxPoint x="1300" y="620" />
            </Array>
            <mxPoint x="1310.0400000000002" y="620.3300000000002" as="targetPoint" />
          </mxGeometry>
        </mxCell>
        <mxCell id="YIYq9nX8O7GQGufym3ho-19" style="edgeStyle=orthogonalEdgeStyle;rounded=0;orthogonalLoop=1;jettySize=auto;html=1;entryX=0;entryY=0.5;entryDx=0;entryDy=0;jumpStyle=arc;exitX=1;exitY=0.5;exitDx=0;exitDy=0;" parent="1" source="YIYq9nX8O7GQGufym3ho-18" target="7fQUANpCW0_2PBthWF22-19" edge="1">
          <mxGeometry relative="1" as="geometry">
            <Array as="points">
              <mxPoint x="1000" y="630" />
              <mxPoint x="1310" y="630" />
              <mxPoint x="1310" y="660" />
            </Array>
          </mxGeometry>
        </mxCell>
        <mxCell id="vC3kN3sA0wpL92mDHwyi-55" value="" style="group" parent="1" vertex="1" connectable="0">
          <mxGeometry x="640" y="120" width="160" height="280" as="geometry" />
        </mxCell>
        <mxCell id="-hvyRLRQOOJ3VwnVLbOB-47" value="Control&lt;div&gt;Unit&lt;/div&gt;&lt;div&gt;&lt;br&gt;&lt;/div&gt;&lt;div&gt;&lt;br&gt;&lt;/div&gt;&lt;div&gt;&lt;br&gt;&lt;/div&gt;&lt;div&gt;&lt;br&gt;&lt;/div&gt;" style="whiteSpace=wrap;html=1;shadow=1;fontSize=18;fillColor=#f5f5f5;strokeColor=#666666;container=0;" parent="vC3kN3sA0wpL92mDHwyi-55" vertex="1">
          <mxGeometry width="160" height="280" as="geometry" />
        </mxCell>
        <mxCell id="q9rqpO51LhmBKndgSOn--2" value="ALUsrcA" style="text;html=1;align=center;verticalAlign=middle;whiteSpace=wrap;rounded=0;container=0;" parent="vC3kN3sA0wpL92mDHwyi-55" vertex="1">
          <mxGeometry x="110" y="50" width="50" height="30" as="geometry" />
        </mxCell>
        <mxCell id="-hvyRLRQOOJ3VwnVLbOB-48" value="RegWrite" style="text;html=1;align=right;verticalAlign=middle;whiteSpace=wrap;rounded=0;container=0;" parent="vC3kN3sA0wpL92mDHwyi-55" vertex="1">
          <mxGeometry x="100" y="260" width="60" height="20" as="geometry" />
        </mxCell>
        <mxCell id="-hvyRLRQOOJ3VwnVLbOB-49" value="opcode" style="text;html=1;align=left;verticalAlign=middle;whiteSpace=wrap;rounded=0;container=0;" parent="vC3kN3sA0wpL92mDHwyi-55" vertex="1">
          <mxGeometry y="40" width="60" height="20" as="geometry" />
        </mxCell>
        <mxCell id="-hvyRLRQOOJ3VwnVLbOB-59" value="opcode" style="text;html=1;align=right;verticalAlign=middle;whiteSpace=wrap;rounded=0;container=0;" parent="vC3kN3sA0wpL92mDHwyi-55" vertex="1">
          <mxGeometry x="100" y="40" width="60" height="20" as="geometry" />
        </mxCell>
        <mxCell id="F4LApp7SRapzV72RJLrX-56" value="MemRead" style="text;html=1;align=center;verticalAlign=middle;whiteSpace=wrap;rounded=0;container=0;" parent="vC3kN3sA0wpL92mDHwyi-55" vertex="1">
          <mxGeometry x="100" y="200" width="60" height="20" as="geometry" />
        </mxCell>
        <mxCell id="F4LApp7SRapzV72RJLrX-73" value="MemWrite" style="text;html=1;align=center;verticalAlign=middle;whiteSpace=wrap;rounded=0;container=0;" parent="vC3kN3sA0wpL92mDHwyi-55" vertex="1">
          <mxGeometry x="100" y="220" width="60" height="20" as="geometry" />
        </mxCell>
        <mxCell id="laC3dYbV331lfGwgBf-x-33" value="ALUsrcB" style="text;html=1;align=center;verticalAlign=middle;whiteSpace=wrap;rounded=0;container=0;" parent="vC3kN3sA0wpL92mDHwyi-55" vertex="1">
          <mxGeometry x="110" y="70" width="50" height="20" as="geometry" />
        </mxCell>
        <mxCell id="laC3dYbV331lfGwgBf-x-37" value="Mem2Reg" style="text;html=1;align=center;verticalAlign=middle;whiteSpace=wrap;rounded=0;container=0;" parent="vC3kN3sA0wpL92mDHwyi-55" vertex="1">
          <mxGeometry x="100" y="180" width="60" height="20" as="geometry" />
        </mxCell>
        <mxCell id="laC3dYbV331lfGwgBf-x-40" value="Branch" style="text;html=1;align=center;verticalAlign=middle;whiteSpace=wrap;rounded=0;container=0;" parent="vC3kN3sA0wpL92mDHwyi-55" vertex="1">
          <mxGeometry x="120" y="20" width="40" height="20" as="geometry" />
        </mxCell>
        <mxCell id="s6hKSkpy---ewfnxM8lV-1" value="Jump" style="text;html=1;align=center;verticalAlign=middle;whiteSpace=wrap;rounded=0;container=0;" parent="vC3kN3sA0wpL92mDHwyi-55" vertex="1">
          <mxGeometry x="120" width="40" height="20" as="geometry" />
        </mxCell>
        <mxCell id="jGIxOcGe_lyUybQSf8QV-1" value="funct3" style="text;html=1;align=left;verticalAlign=middle;whiteSpace=wrap;rounded=0;container=0;" parent="vC3kN3sA0wpL92mDHwyi-55" vertex="1">
          <mxGeometry y="70" width="40" height="20" as="geometry" />
        </mxCell>
        <mxCell id="jGIxOcGe_lyUybQSf8QV-4" value="CSRop" style="text;html=1;align=center;verticalAlign=middle;whiteSpace=wrap;rounded=0;container=0;" parent="vC3kN3sA0wpL92mDHwyi-55" vertex="1">
          <mxGeometry x="120" y="100" width="40" height="20" as="geometry" />
        </mxCell>
        <mxCell id="LOUQa-txSwxVZWsO9tRF-1" value="CSR.Addr.src" style="text;html=1;align=center;verticalAlign=middle;whiteSpace=wrap;rounded=0;container=0;" parent="vC3kN3sA0wpL92mDHwyi-55" vertex="1">
          <mxGeometry x="80" y="140" width="80" height="30" as="geometry" />
        </mxCell>
        <mxCell id="fCNnA6YKo8tVsQt9WhIM-9" value="DC_Write" style="text;html=1;align=right;verticalAlign=middle;whiteSpace=wrap;rounded=0;container=0;" parent="vC3kN3sA0wpL92mDHwyi-55" vertex="1">
          <mxGeometry x="100" y="240" width="60" height="30" as="geometry" />
        </mxCell>
        <mxCell id="IpAbVSy56P0OoJBHXVlp-19" value="Write_Done" style="text;html=1;align=left;verticalAlign=middle;whiteSpace=wrap;rounded=0;container=0;" parent="vC3kN3sA0wpL92mDHwyi-55" vertex="1">
          <mxGeometry width="70" height="20" as="geometry" />
        </mxCell>
        <mxCell id="YIYq9nX8O7GQGufym3ho-10" value="CSR.Data.src" style="text;html=1;align=center;verticalAlign=middle;whiteSpace=wrap;rounded=0;container=0;" parent="vC3kN3sA0wpL92mDHwyi-55" vertex="1">
          <mxGeometry x="80" y="160" width="80" height="20" as="geometry" />
        </mxCell>
        <mxCell id="vC3kN3sA0wpL92mDHwyi-37" value="CSR_Read" style="text;html=1;align=right;verticalAlign=middle;whiteSpace=wrap;rounded=0;container=0;" parent="vC3kN3sA0wpL92mDHwyi-55" vertex="1">
          <mxGeometry x="90" y="110" width="70" height="30" as="geometry" />
        </mxCell>
        <mxCell id="QWSBbdvPpNymhQ5q6x3e-9" value="CSR_Write" style="text;html=1;align=right;verticalAlign=middle;whiteSpace=wrap;rounded=0;container=0;" parent="vC3kN3sA0wpL92mDHwyi-55" vertex="1">
          <mxGeometry x="90" y="130" width="70" height="20" as="geometry" />
        </mxCell>
        <mxCell id="64JDVrVSjXghW2DnclTE-18" value="CLK" style="text;html=1;align=center;verticalAlign=middle;whiteSpace=wrap;rounded=0;container=0;" parent="1" vertex="1">
          <mxGeometry x="960" y="560" width="40" height="20" as="geometry" />
        </mxCell>
        <mxCell id="jGIxOcGe_lyUybQSf8QV-18" value="" style="triangle;whiteSpace=wrap;html=1;rotation=90;container=0;" parent="1" vertex="1">
          <mxGeometry x="955" y="575" width="10" height="20" as="geometry" />
        </mxCell>
        <mxCell id="jGIxOcGe_lyUybQSf8QV-19" value="" style="edgeStyle=none;orthogonalLoop=1;jettySize=auto;html=1;rounded=0;" parent="1" edge="1">
          <mxGeometry width="100" relative="1" as="geometry">
            <mxPoint x="960" y="560" as="sourcePoint" />
            <mxPoint x="960" y="580" as="targetPoint" />
            <Array as="points" />
          </mxGeometry>
        </mxCell>
        <mxCell id="BtpwSkirMHUlfhhFMKDF-24" style="edgeStyle=orthogonalEdgeStyle;rounded=0;orthogonalLoop=1;jettySize=auto;html=1;entryX=0;entryY=0.5;entryDx=0;entryDy=0;exitX=1;exitY=0.5;exitDx=0;exitDy=0;jumpStyle=arc;" parent="1" source="BtpwSkirMHUlfhhFMKDF-5" target="F4LApp7SRapzV72RJLrX-88" edge="1">
          <mxGeometry relative="1" as="geometry">
            <Array as="points">
              <mxPoint x="1710" y="70" />
              <mxPoint x="1710" y="780" />
              <mxPoint x="1540" y="780" />
              <mxPoint x="1540" y="870" />
            </Array>
          </mxGeometry>
        </mxCell>
        <mxCell id="laC3dYbV331lfGwgBf-x-2" style="edgeStyle=orthogonalEdgeStyle;rounded=0;orthogonalLoop=1;jettySize=auto;html=1;entryX=0;entryY=0.5;entryDx=0;entryDy=0;jumpStyle=arc;" parent="1" source="7fQUANpCW0_2PBthWF22-49" target="F4LApp7SRapzV72RJLrX-87" edge="1">
          <mxGeometry relative="1" as="geometry">
            <Array as="points">
              <mxPoint x="1530" y="740" />
              <mxPoint x="1530" y="840" />
            </Array>
          </mxGeometry>
        </mxCell>
        <mxCell id="laC3dYbV331lfGwgBf-x-4" value="to RegF" style="edgeLabel;html=1;align=center;verticalAlign=middle;resizable=0;points=[];" parent="laC3dYbV331lfGwgBf-x-2" vertex="1" connectable="0">
          <mxGeometry relative="1" as="geometry">
            <mxPoint x="-50" y="-20" as="offset" />
          </mxGeometry>
        </mxCell>
        <mxCell id="IpAbVSy56P0OoJBHXVlp-20" style="edgeStyle=orthogonalEdgeStyle;rounded=0;orthogonalLoop=1;jettySize=auto;html=1;entryX=0;entryY=0.5;entryDx=0;entryDy=0;jumpStyle=arc;exitX=1;exitY=0.5;exitDx=0;exitDy=0;" parent="1" source="IpAbVSy56P0OoJBHXVlp-4" target="IpAbVSy56P0OoJBHXVlp-19" edge="1">
          <mxGeometry relative="1" as="geometry">
            <Array as="points">
              <mxPoint x="1730" y="960" />
              <mxPoint x="1730" y="10" />
              <mxPoint x="620" y="10" />
              <mxPoint x="620" y="130" />
            </Array>
          </mxGeometry>
        </mxCell>
        <mxCell id="s6hKSkpy---ewfnxM8lV-12" style="edgeStyle=orthogonalEdgeStyle;rounded=0;orthogonalLoop=1;jettySize=auto;html=1;entryX=0;entryY=0.5;entryDx=0;entryDy=0;exitX=1;exitY=0.5;exitDx=0;exitDy=0;jumpStyle=arc;" parent="1" source="s6hKSkpy---ewfnxM8lV-11" target="jQQxH6LwXFBK_Qau7PEY-28" edge="1">
          <mxGeometry relative="1" as="geometry">
            <Array as="points">
              <mxPoint x="1500" y="150" />
              <mxPoint x="1500" y="80" />
              <mxPoint x="140" y="80" />
              <mxPoint x="140" y="280" />
            </Array>
          </mxGeometry>
        </mxCell>
        <mxCell id="zFS1pn2A8cmfrVWvFFyQ-12" style="edgeStyle=orthogonalEdgeStyle;rounded=0;orthogonalLoop=1;jettySize=auto;html=1;entryX=0;entryY=0.5;entryDx=0;entryDy=0;exitX=1;exitY=0.5;exitDx=0;exitDy=0;jumpStyle=arc;" parent="1" source="s6hKSkpy---ewfnxM8lV-1" target="jQQxH6LwXFBK_Qau7PEY-25" edge="1">
          <mxGeometry relative="1" as="geometry">
            <Array as="points">
              <mxPoint x="820" y="130" />
              <mxPoint x="820" y="100" />
              <mxPoint x="150" y="100" />
              <mxPoint x="150" y="260" />
            </Array>
          </mxGeometry>
        </mxCell>
        <mxCell id="Mn9ajNqdIyL5JpjhL2zD-1" value="" style="group" vertex="1" connectable="0" parent="1">
          <mxGeometry x="640" y="1070" width="240" height="100" as="geometry" />
        </mxCell>
        <mxCell id="wyz3YsZ-V2g4d5ax0XK7-12" value="&lt;div&gt;Memory&lt;/div&gt;&lt;div&gt;Controller&lt;/div&gt;" style="whiteSpace=wrap;html=1;shadow=1;fontSize=18;fillColor=#f5f5f5;strokeColor=#666666;" parent="Mn9ajNqdIyL5JpjhL2zD-1" vertex="1">
          <mxGeometry width="240" height="100" as="geometry" />
        </mxCell>
        <mxCell id="wyz3YsZ-V2g4d5ax0XK7-13" value="PC" style="text;html=1;align=left;verticalAlign=middle;whiteSpace=wrap;rounded=0;" parent="Mn9ajNqdIyL5JpjhL2zD-1" vertex="1">
          <mxGeometry y="20" width="20" height="20" as="geometry" />
        </mxCell>
        <mxCell id="o8jE4zu5w3KYZrWDI-N--5" value="I.UP_Addr" style="text;html=1;align=left;verticalAlign=middle;whiteSpace=wrap;rounded=0;" parent="Mn9ajNqdIyL5JpjhL2zD-1" vertex="1">
          <mxGeometry y="80" width="60" height="20" as="geometry" />
        </mxCell>
        <mxCell id="o8jE4zu5w3KYZrWDI-N--28" value="IC_Status" style="text;html=1;align=left;verticalAlign=middle;whiteSpace=wrap;rounded=0;" parent="Mn9ajNqdIyL5JpjhL2zD-1" vertex="1">
          <mxGeometry width="60" height="20" as="geometry" />
        </mxCell>
        <mxCell id="o8jE4zu5w3KYZrWDI-N--34" value="IC.IM_MUX" style="text;html=1;align=left;verticalAlign=middle;whiteSpace=wrap;rounded=0;" parent="Mn9ajNqdIyL5JpjhL2zD-1" vertex="1">
          <mxGeometry y="60" width="70" height="20" as="geometry" />
        </mxCell>
        <mxCell id="_H_bEt4n4NwgmmSnS2Ty-5" value="DC_Status" style="text;html=1;align=right;verticalAlign=middle;whiteSpace=wrap;rounded=0;" parent="Mn9ajNqdIyL5JpjhL2zD-1" vertex="1">
          <mxGeometry x="180" y="20" width="60" height="20" as="geometry" />
        </mxCell>
        <mxCell id="_H_bEt4n4NwgmmSnS2Ty-6" value="DC.DM_MUX" style="text;html=1;align=right;verticalAlign=middle;whiteSpace=wrap;rounded=0;" parent="Mn9ajNqdIyL5JpjhL2zD-1" vertex="1">
          <mxGeometry x="160" y="60" width="80" height="20" as="geometry" />
        </mxCell>
        <mxCell id="_H_bEt4n4NwgmmSnS2Ty-7" value="D.Up_Addr" style="text;html=1;align=right;verticalAlign=middle;whiteSpace=wrap;rounded=0;" parent="Mn9ajNqdIyL5JpjhL2zD-1" vertex="1">
          <mxGeometry x="170" y="80" width="70" height="20" as="geometry" />
        </mxCell>
        <mxCell id="_H_bEt4n4NwgmmSnS2Ty-25" value="Data_Addr" style="text;html=1;align=right;verticalAlign=middle;whiteSpace=wrap;rounded=0;" parent="Mn9ajNqdIyL5JpjhL2zD-1" vertex="1">
          <mxGeometry x="180" y="40" width="60" height="20" as="geometry" />
        </mxCell>
        <mxCell id="Mn9ajNqdIyL5JpjhL2zD-2" value="B2C_Flush" style="text;html=1;align=right;verticalAlign=middle;whiteSpace=wrap;rounded=0;" vertex="1" parent="Mn9ajNqdIyL5JpjhL2zD-1">
          <mxGeometry x="180" width="60" height="20" as="geometry" />
        </mxCell>
        <mxCell id="Mn9ajNqdIyL5JpjhL2zD-5" style="edgeStyle=orthogonalEdgeStyle;rounded=0;orthogonalLoop=1;jettySize=auto;html=1;entryX=0;entryY=0.5;entryDx=0;entryDy=0;" edge="1" parent="1" source="Mn9ajNqdIyL5JpjhL2zD-2" target="Mn9ajNqdIyL5JpjhL2zD-4">
          <mxGeometry relative="1" as="geometry">
            <Array as="points">
              <mxPoint x="990" y="1080" />
              <mxPoint x="990" y="980" />
            </Array>
          </mxGeometry>
        </mxCell>
      </root>
    </mxGraphModel>
  </diagram>
</mxfile>
